<svg width="53" height="53" viewBox="0 0 53 53" fill="none" xmlns="http://www.w3.org/2000/svg">
<path d="M9.5 1L1 9.5V43.5L9.5 52H43.5L52 43.5V9.5L43.5 1H9.5Z" fill="#F2F2F7" stroke="black" stroke-width="1.5"/>
<path d="M10.9125 5L5 10.9125V42.0875L10.9125 48H42.0875L48 42.0875V10.9125L42.0875 5H10.9125Z" stroke="black" stroke-width="1.5"/>
<path d="M37.9375 12.1562C38.3693 12.1562 38.7188 11.8068 38.7188 11.375C38.7188 10.9432 38.3693 10.5938 37.9375 10.5938H31.6875C31.2557 10.5938 30.9062 10.9432 30.9062 11.375C30.9062 11.8068 31.2557 12.1562 31.6875 12.1562H37.9375Z" fill="black"/>
<path d="M14.5 16.8438C14.0682 16.8438 13.7188 17.1932 13.7188 17.625V19.1875C13.7188 19.6193 14.0682 19.9688 14.5 19.9688C14.9318 19.9688 15.2812 19.6193 15.2812 19.1875V17.625C15.2812 17.1932 14.9318 16.8438 14.5 16.8438Z" fill="black"/>
<path d="M17.625 16.8438C17.1932 16.8438 16.8438 17.1932 16.8438 17.625V19.1875C16.8438 19.6193 17.1932 19.9688 17.625 19.9688C18.0568 19.9688 18.4062 19.6193 18.4062 19.1875V17.625C18.4062 17.1932 18.0568 16.8438 17.625 16.8438Z" fill="black"/>
<path d="M20.75 16.8438C20.3182 16.8438 19.9688 17.1932 19.9688 17.625V19.1875C19.9688 19.6193 20.3182 19.9688 20.75 19.9688C21.1818 19.9688 21.5312 19.6193 21.5312 19.1875V17.625C21.5312 17.1932 21.1818 16.8438 20.75 16.8438Z" fill="black"/>
<path d="M41.8438 27.8306V9.8125C41.8438 8.52008 40.7924 7.46875 39.5 7.46875H30.3127C29.4193 7.46875 28.6151 7.96695 28.2169 8.76498L27.5119 10.1589C27.3777 10.4267 27.1099 10.5938 26.8123 10.5938H17.625C17.1932 10.5938 16.8438 10.9432 16.8438 11.375C16.8438 11.8068 17.1932 12.1562 17.625 12.1562H26.8123C27.7057 12.1562 28.5099 11.658 28.9081 10.86L29.6131 9.46612C29.7473 9.19834 30.0151 9.03125 30.3127 9.03125H39.5C39.9311 9.03125 40.2812 9.38144 40.2812 9.8125V21.5312H38.7188V20.75C38.7188 16.8727 35.5648 13.7188 31.6875 13.7188H11.375C10.9432 13.7188 10.5938 14.0682 10.5938 14.5V21.5312H9.03125V12.9375C9.03125 12.5064 9.38144 12.1562 9.8125 12.1562H14.5C14.9318 12.1562 15.2812 11.8068 15.2812 11.375C15.2812 10.9432 14.9318 10.5938 14.5 10.5938H9.8125C8.52008 10.5938 7.46875 11.6451 7.46875 12.9375V37.9375C7.46875 39.2299 8.52008 40.2812 9.8125 40.2812H27.0023C28.5362 43.9476 32.1588 46.5312 36.375 46.5312C41.975 46.5312 46.5312 41.975 46.5312 36.375C46.5312 32.789 44.658 29.6383 41.8438 27.8306ZM36.8652 19.0038C36.267 18.6313 35.5675 18.4062 34.8125 18.4062H34.0312V17.625C34.0312 16.87 33.8062 16.1705 33.4337 15.5723C35.0451 16.1174 36.3201 17.3924 36.8652 19.0038ZM30.9062 42.9989V42.7341C30.9062 40.8149 33.1547 39.7261 35.5938 39.5339V41.8438C35.5938 42.2756 35.9432 42.625 36.375 42.625C36.8068 42.625 37.1562 42.2756 37.1562 41.8438V39.5339C39.5953 39.7261 41.8438 40.8149 41.8438 42.7341V42.9989C40.3568 44.2286 38.4508 44.9688 36.375 44.9688C34.2992 44.9688 32.3932 44.2286 30.9062 42.9989ZM33.6406 35.2031V34.8125H35.1398C35.7517 34.8125 36.3239 34.5905 36.7656 34.2105C37.2074 34.5905 37.7796 34.8125 38.3914 34.8125H39.1094V35.2031C39.1094 36.7107 37.8826 37.9375 36.375 37.9375C34.8674 37.9375 33.6406 36.7107 33.6406 35.2031ZM33.6801 33.25C33.8717 31.9284 35.0012 30.9062 36.375 30.9062C37.7488 30.9062 38.8783 31.9284 39.0699 33.25H38.3914C37.9894 33.25 37.6338 32.9937 37.5064 32.6122C37.4004 32.2933 37.1021 32.0781 36.7656 32.0781C36.4292 32.0781 36.1309 32.2933 36.0248 32.6122C35.8974 32.9937 35.5419 33.25 35.1398 33.25H33.6801ZM43.2178 41.5525C42.7357 40.0401 41.3258 38.8852 39.3222 38.3213C40.1511 37.5375 40.6719 36.431 40.6719 35.2031V33.6406C40.6719 31.2717 38.7439 29.3438 36.375 29.3438C34.0061 29.3438 32.0781 31.2717 32.0781 33.6406V35.2031C32.0781 36.431 32.5989 37.5375 33.4278 38.3213C31.4242 38.8852 30.0143 40.0401 29.5322 41.5524C28.4385 40.1105 27.7812 38.3202 27.7812 36.375C27.7812 34.5706 28.3306 32.8472 29.3697 31.3915C29.6207 31.0405 29.5391 30.5522 29.1881 30.302C28.8379 30.051 28.3481 30.1326 28.0986 30.4836C26.8688 32.2055 26.2188 34.2433 26.2188 36.375C26.2188 37.1828 26.3236 37.9649 26.5027 38.7188H9.8125C9.38144 38.7188 9.03125 38.3686 9.03125 37.9375V23.0938H20.75C21.1818 23.0938 21.5312 22.7443 21.5312 22.3125C21.5312 21.8807 21.1818 21.5312 20.75 21.5312H12.1562V15.2812H30.125C31.4174 15.2812 32.4688 16.3326 32.4688 17.625V19.1875C32.4688 19.6193 32.8182 19.9688 33.25 19.9688H34.8125C35.8296 19.9688 36.6888 20.6238 37.0123 21.5312H23.875C23.4432 21.5312 23.0938 21.8807 23.0938 22.3125C23.0938 22.7443 23.4432 23.0938 23.875 23.0938H40.2812V27.0023C39.0779 26.4989 37.7588 26.2188 36.375 26.2188C34.2433 26.2188 32.2055 26.8688 30.4836 28.0986C30.1326 28.3489 30.051 28.8372 30.302 29.1881C30.5515 29.5391 31.0405 29.6207 31.3915 29.3697C32.8472 28.3306 34.5706 27.7812 36.375 27.7812C41.1136 27.7812 44.9688 31.6364 44.9688 36.375C44.9688 38.3202 44.3115 40.1105 43.2178 41.5525Z" fill="black"/>
</svg>
