<svg width="53" height="53" viewBox="0 0 53 53" fill="none" xmlns="http://www.w3.org/2000/svg">
<path d="M9.5 1L1 9.5V43.5L9.5 52H43.5L52 43.5V9.5L43.5 1H9.5Z" fill="#E6E6EB" stroke="black" stroke-width="1.5"/>
<path d="M10.9125 5L5 10.9125V42.0875L10.9125 48H42.0875L48 42.0875V10.9125L42.0875 5H10.9125Z" stroke="black" stroke-width="1.5"/>
<path d="M46.5312 14.2812C46.5312 9.9737 43.0263 6.46875 38.7188 6.46875C34.4112 6.46875 30.9062 9.9737 30.9062 14.2812C30.9062 14.2985 30.9087 14.3152 30.9088 14.3324C29.6539 13.9096 28.3444 13.6953 27 13.6953C26.0514 13.6953 25.1152 13.8054 24.2054 14.0166L24.0123 13.2963C23.9109 12.9148 23.534 12.6669 23.151 12.7248C22.7046 12.7859 22.256 12.6379 21.9341 12.3159C21.6121 11.9939 21.4633 11.5499 21.5251 11.099C21.5793 10.7092 21.3344 10.3399 20.9537 10.2377L17.9355 9.42894C17.5563 9.32518 17.1573 9.5243 17.0093 9.88899C16.8384 10.3109 16.4874 10.6206 16.048 10.7389C15.6078 10.8541 15.15 10.7633 14.7907 10.4841C14.4794 10.2415 14.0376 10.2689 13.7584 10.5482L11.5482 12.7584C11.2697 13.0369 11.2422 13.4794 11.4841 13.7907C11.7633 14.15 11.8564 14.6078 11.7389 15.048C11.6206 15.4874 11.3109 15.8384 10.889 16.0093C10.5243 16.1581 10.3267 16.5548 10.4289 16.9355L11.2377 19.9537C11.3391 20.3352 11.716 20.5824 12.099 20.5251C12.5461 20.4649 12.9932 20.6114 13.3159 20.9341C13.6379 21.256 13.7866 21.7001 13.7248 22.151C13.6707 22.5408 13.9156 22.9101 14.2963 23.0123L15.0166 23.2054C14.8054 24.1152 14.6953 25.0514 14.6953 26C14.6953 27.3444 14.9097 28.6539 15.3325 29.9088C15.3152 29.9087 15.2985 29.9062 15.2812 29.9062C10.9737 29.9062 7.46875 33.4112 7.46875 37.7188C7.46875 38.6129 7.61752 39.4865 7.91202 40.3158C8.05621 40.7232 8.50405 40.933 8.90918 40.7911C9.31583 40.6469 9.52869 40.2006 9.38449 39.7939C9.15027 39.1325 9.03125 38.4344 9.03125 37.7188C9.03125 34.2726 11.8351 31.4688 15.2812 31.4688C18.7274 31.4688 21.5312 34.2726 21.5312 37.7188C21.5312 41.1649 18.7274 43.9688 15.2812 43.9688C14.5656 43.9688 13.8675 43.8497 13.2061 43.6155C12.8002 43.4713 12.3531 43.6834 12.2089 44.0908C12.0647 44.4975 12.2776 44.9438 12.6842 45.088C13.5135 45.3825 14.3871 45.5312 15.2812 45.5312C19.5888 45.5312 23.0938 42.0263 23.0938 37.7188C23.0938 37.7015 23.0913 37.6848 23.0912 37.6675C24.3461 38.0903 25.6556 38.3047 27 38.3047C27.9486 38.3047 28.8848 38.1946 29.7946 37.9834L29.9877 38.7037C30.0891 39.0852 30.463 39.3339 30.849 39.2752C31.2938 39.2126 31.744 39.3614 32.0659 39.6841C32.3879 40.0061 32.5367 40.4501 32.4749 40.901C32.4207 41.2908 32.6656 41.6601 33.0463 41.7623L36.065 42.5712C36.4503 42.6759 36.842 42.4782 36.9907 42.111C37.1616 41.6891 37.5126 41.3793 37.952 41.2611C38.3937 41.1459 38.85 41.2367 39.2093 41.5159C39.5206 41.7585 39.9616 41.7311 40.2416 41.4518L42.4518 39.2416C42.7303 38.9631 42.7578 38.5206 42.5159 38.2093C42.2367 37.85 42.1436 37.3922 42.2611 36.952C42.3793 36.5126 42.6891 36.1616 43.111 35.9907C43.4757 35.8419 43.6733 35.4452 43.5711 35.0645L42.7623 32.0463C42.6601 31.6656 42.2855 31.4184 41.901 31.4749C41.4554 31.5336 41.0061 31.3886 40.6841 31.0659C40.3621 30.744 40.2134 30.2999 40.2752 29.849C40.3293 29.4592 40.0844 29.0899 39.7037 28.9877L38.9834 28.7946C39.1946 27.8848 39.3047 26.9486 39.3047 26C39.3047 24.6556 39.0904 23.3461 38.6676 22.0912C38.6848 22.0913 38.7015 22.0938 38.7188 22.0938C43.0263 22.0938 46.5312 18.5888 46.5312 14.2812ZM38.7188 8.03125C42.1649 8.03125 44.9688 10.8351 44.9688 14.2812C44.9688 17.7274 42.1649 20.5312 38.7188 20.5312C35.2726 20.5312 32.4688 17.7274 32.4688 14.2812C32.4688 10.8351 35.2726 8.03125 38.7188 8.03125ZM12.5896 18.9619L12.0952 17.1186C12.6567 16.7196 13.0641 16.1375 13.248 15.4524C13.4319 14.7665 13.3693 14.0592 13.0832 13.4329L14.4329 12.0832C15.0585 12.3701 15.7657 12.4304 16.4524 12.248C17.1375 12.0641 17.7196 11.6567 18.1186 11.0952L19.9619 11.5896C20.0275 12.2755 20.3273 12.9186 20.8294 13.4206C21.3314 13.9227 21.9745 14.2225 22.6604 14.2881L23.1548 16.1314C22.5933 16.5304 22.1859 17.1125 22.002 17.7976C21.8181 18.4835 21.8807 19.1908 22.1668 19.8171L20.8171 21.1668C20.1908 20.8799 19.4843 20.8189 18.7976 21.002C18.1125 21.1858 17.5304 21.5933 17.1314 22.1548L15.2881 21.6604C15.2225 20.9745 14.9227 20.3314 14.4207 19.8293C13.9186 19.3273 13.2755 19.0275 12.5896 18.9619ZM41.4104 33.0381L41.9048 34.8814C41.3433 35.2804 40.9359 35.8625 40.752 36.5476C40.5681 37.2335 40.6307 37.9408 40.9168 38.5671L39.5671 39.9168C38.9408 39.6299 38.2343 39.5689 37.5476 39.752C36.8625 39.9359 36.2804 40.3433 35.8814 40.9048L34.0381 40.4104C33.9725 39.7245 33.6727 39.0814 33.1706 38.5794C32.6686 38.0773 32.0255 37.7775 31.3396 37.7119L30.8452 35.8686C31.4067 35.4696 31.8141 34.8875 31.998 34.2024C32.1819 33.5165 32.1193 32.8092 31.8332 32.1829L33.1829 30.8332C33.8092 31.1201 34.5157 31.1811 35.2024 30.998C35.8875 30.8142 36.4696 30.4067 36.8686 29.8452L38.7119 30.3396C38.7775 31.0255 39.0773 31.6686 39.5793 32.1707C40.0814 32.6727 40.7245 32.9725 41.4104 33.0381ZM37.7422 26C37.7422 26.8116 37.6518 27.6126 37.475 28.3905L36.6855 28.179C36.3071 28.0767 35.9081 28.2743 35.7593 28.639C35.5884 29.0609 35.2375 29.3707 34.798 29.4889C34.357 29.6049 33.9 29.5133 33.5407 29.2341C33.2302 28.9922 32.7876 29.0182 32.5084 29.2982L30.2982 31.5084C30.0197 31.7869 29.9922 32.2294 30.2341 32.5407C30.5133 32.9 30.6064 33.3578 30.4889 33.798C30.3707 34.2375 30.0609 34.5884 29.639 34.7593C29.2743 34.9081 29.0767 35.3048 29.1789 35.6855L29.3887 36.4685C27.2393 36.9557 24.9319 36.7642 22.8726 35.9055C22.1913 33.0549 19.9476 30.8106 17.0974 30.1281C16.5487 28.8181 16.2578 27.4339 16.2578 26C16.2578 25.1884 16.3482 24.3874 16.525 23.6095L17.3146 23.8211C17.6898 23.9233 18.0945 23.7219 18.2407 23.361C18.4116 22.9391 18.7625 22.6293 19.202 22.5111C19.6422 22.3959 20.1007 22.4867 20.4593 22.7659C20.7698 23.0077 21.2124 22.981 21.4916 22.7018L23.7018 20.4916C23.9803 20.2131 24.0078 19.7706 23.7659 19.4593C23.4867 19.1 23.3936 18.6422 23.5111 18.202C23.6293 17.7625 23.9391 17.4116 24.361 17.2407C24.7257 17.0919 24.9233 16.6952 24.8211 16.3145L24.6113 15.5317C26.7608 15.045 29.0687 15.2364 31.1274 16.0945C31.8088 18.9451 34.0524 21.1894 36.9026 21.8719C37.4512 23.1819 37.7422 24.5661 37.7422 26Z" fill="black"/>
<path d="M39.2063 15.8438H37.1562C36.7244 15.8438 36.375 16.1932 36.375 16.625C36.375 17.0568 36.7244 17.4062 37.1562 17.4062H37.9375V18.1875C37.9375 18.6193 38.2869 18.9688 38.7188 18.9688C39.1506 18.9688 39.5 18.6193 39.5 18.1875V17.3766C40.3838 17.2346 41.0625 16.4733 41.0625 15.55C41.0625 14.7238 40.5307 14.0096 39.7396 13.7716L38.1473 13.294C38.0237 13.2574 37.9375 13.1414 37.9375 13.0125C37.9375 12.8507 38.0695 12.7188 38.2312 12.7188H40.2812C40.7131 12.7188 41.0625 12.3693 41.0625 11.9375C41.0625 11.5057 40.7131 11.1562 40.2812 11.1562H39.5V10.375C39.5 9.94318 39.1506 9.59375 38.7188 9.59375C38.2869 9.59375 37.9375 9.94318 37.9375 10.375V11.186C37.0537 11.3279 36.375 12.0892 36.375 13.0125C36.375 13.8387 36.9068 14.5529 37.6979 14.7909L39.2902 15.2685C39.4138 15.3051 39.5 15.4211 39.5 15.55C39.5 15.7118 39.368 15.8438 39.2063 15.8438Z" fill="black"/>
<path d="M15.7688 39.2812H13.7188C13.2869 39.2812 12.9375 39.6307 12.9375 40.0625C12.9375 40.4943 13.2869 40.8438 13.7188 40.8438H14.5V41.625C14.5 42.0568 14.8494 42.4062 15.2812 42.4062C15.7131 42.4062 16.0625 42.0568 16.0625 41.625V40.8141C16.9463 40.6721 17.625 39.9108 17.625 38.9875C17.625 38.1613 17.0932 37.4471 16.3021 37.2091L14.7098 36.7315C14.5862 36.6949 14.5 36.5789 14.5 36.45C14.5 36.2882 14.632 36.1562 14.7937 36.1562H16.8438C17.2756 36.1562 17.625 35.8068 17.625 35.375C17.625 34.9432 17.2756 34.5938 16.8438 34.5938H16.0625V33.8125C16.0625 33.3807 15.7131 33.0312 15.2812 33.0312C14.8494 33.0312 14.5 33.3807 14.5 33.8125V34.6235C13.6162 34.7654 12.9375 35.5267 12.9375 36.45C12.9375 37.2762 13.4693 37.9904 14.2604 38.2284L15.8527 38.706C15.9763 38.7426 16.0625 38.8586 16.0625 38.9875C16.0625 39.1493 15.9305 39.2812 15.7688 39.2812Z" fill="black"/>
<path d="M17.625 19.75C19.3485 19.75 20.75 18.3485 20.75 16.625C20.75 14.9015 19.3485 13.5 17.625 13.5C15.9015 13.5 14.5 14.9015 14.5 16.625C14.5 18.3485 15.9015 19.75 17.625 19.75ZM17.625 15.0625C18.4864 15.0625 19.1875 15.7636 19.1875 16.625C19.1875 17.4864 18.4864 18.1875 17.625 18.1875C16.7636 18.1875 16.0625 17.4864 16.0625 16.625C16.0625 15.7636 16.7636 15.0625 17.625 15.0625Z" fill="black"/>
<path d="M36.375 32.25C34.6515 32.25 33.25 33.6515 33.25 35.375C33.25 37.0985 34.6515 38.5 36.375 38.5C38.0985 38.5 39.5 37.0985 39.5 35.375C39.5 33.6515 38.0985 32.25 36.375 32.25ZM36.375 36.9375C35.5136 36.9375 34.8125 36.2364 34.8125 35.375C34.8125 34.5136 35.5136 33.8125 36.375 33.8125C37.2364 33.8125 37.9375 34.5136 37.9375 35.375C37.9375 36.2364 37.2364 36.9375 36.375 36.9375Z" fill="black"/>
<path d="M27 22.0938C24.8462 22.0938 23.0938 23.8462 23.0938 26C23.0938 28.1538 24.8462 29.9062 27 29.9062C29.1538 29.9062 30.9062 28.1538 30.9062 26C30.9062 23.8462 29.1538 22.0938 27 22.0938ZM27 28.3438C25.7076 28.3438 24.6562 27.2924 24.6562 26C24.6562 24.7076 25.7076 23.6562 27 23.6562C28.2924 23.6562 29.3438 24.7076 29.3438 26C29.3438 27.2924 28.2924 28.3438 27 28.3438Z" fill="black"/>
<path d="M27 26.7812C27.4315 26.7812 27.7812 26.4315 27.7812 26C27.7812 25.5685 27.4315 25.2188 27 25.2188C26.5685 25.2188 26.2188 25.5685 26.2188 26C26.2188 26.4315 26.5685 26.7812 27 26.7812Z" fill="black"/>
<path d="M10.3086 43.4688C10.7401 43.4688 11.0898 43.119 11.0898 42.6875C11.0898 42.256 10.7401 41.9062 10.3086 41.9062C9.87712 41.9062 9.52734 42.256 9.52734 42.6875C9.52734 43.119 9.87712 43.4688 10.3086 43.4688Z" fill="black"/>
</svg>
