<svg width="53" height="53" viewBox="0 0 53 53" fill="none" xmlns="http://www.w3.org/2000/svg">
<path d="M9.5 1L1 9.5V43.5L9.5 52H43.5L52 43.5V9.5L43.5 1H9.5Z" fill="#E6E6EB" stroke="black" stroke-width="1.5"/>
<path d="M10.9125 5L5 10.9125V42.0875L10.9125 48H42.0875L48 42.0875V10.9125L42.0875 5H10.9125Z" stroke="black" stroke-width="1.5"/>
<path d="M20.75 38.1562H23.875C24.3068 38.1562 24.6562 37.8064 24.6562 37.375V28C24.6562 27.5686 24.3068 27.2188 23.875 27.2188H20.75C20.3182 27.2188 19.9688 27.5686 19.9688 28V37.375C19.9688 37.8064 20.3182 38.1562 20.75 38.1562ZM21.5312 28.7812H23.0938V36.5938H21.5312V28.7812Z" fill="black"/>
<path d="M30.125 38.1562C30.5568 38.1562 30.9062 37.8064 30.9062 37.375V31.125C30.9062 30.6936 30.5568 30.3438 30.125 30.3438H27C26.5682 30.3438 26.2188 30.6936 26.2188 31.125V37.375C26.2188 37.8064 26.5682 38.1562 27 38.1562H30.125ZM27.7812 31.9062H29.3438V36.5938H27.7812V31.9062Z" fill="black"/>
<path d="M36.375 38.1562C36.8068 38.1562 37.1562 37.8064 37.1562 37.375V25.6562C37.1562 25.2248 36.8068 24.875 36.375 24.875H33.25C32.8182 24.875 32.4688 25.2248 32.4688 25.6562V37.375C32.4688 37.8064 32.8182 38.1562 33.25 38.1562H36.375ZM34.0312 26.4375H35.5938V36.5938H34.0312V26.4375Z" fill="black"/>
<path d="M42.625 20.9688H39.5C39.0682 20.9688 38.7188 21.3186 38.7188 21.75V37.375C38.7188 37.8064 39.0682 38.1562 39.5 38.1562H42.625C43.0568 38.1562 43.4062 37.8064 43.4062 37.375V21.75C43.4062 21.3186 43.0568 20.9688 42.625 20.9688ZM41.8438 36.5938H40.2812V22.5312H41.8438V36.5938Z" fill="black"/>
<path d="M42.625 39.7188H20.75C20.3182 39.7188 19.9688 40.0686 19.9688 40.5C19.9688 40.9314 20.3182 41.2812 20.75 41.2812H42.625C43.0568 41.2812 43.4062 40.9314 43.4062 40.5C43.4062 40.0686 43.0568 39.7188 42.625 39.7188Z" fill="black"/>
<path d="M45.75 16.2812H43.2623C42.9388 15.3738 42.0796 14.7188 41.0625 14.7188C39.7701 14.7188 38.7188 15.7701 38.7188 17.0625C38.7188 17.1589 38.7359 17.2507 38.7472 17.344L36.4368 18.5044C36.0149 18.0972 35.4437 17.8438 34.8125 17.8438C33.5201 17.8438 32.4688 18.8951 32.4688 20.1875C32.4688 20.5482 32.5574 20.8861 32.7036 21.1917L29.5667 24.3286C29.2611 24.1824 28.9232 24.0938 28.5625 24.0938C27.9313 24.0938 27.3601 24.3472 26.9382 24.7544L24.6278 23.594C24.6391 23.5007 24.6562 23.4089 24.6562 23.3125C24.6562 22.0201 23.6049 20.9688 22.3125 20.9688C21.2954 20.9688 20.4362 21.6238 20.1127 22.5312H18.4062V17.0625C18.4062 16.7699 18.243 16.5017 17.9828 16.3678C17.7211 16.2332 17.4083 16.2568 17.1711 16.4266L11.906 20.1875H9.8125C8.52008 20.1875 7.46875 21.2388 7.46875 22.5312V24.0938C7.46875 25.0478 8.04353 25.8672 8.86341 26.2326L8.27366 28.5917C8.16837 29.0105 8.4232 29.4347 8.84223 29.5393C9.25555 29.6437 9.68485 29.3868 9.78885 28.9708L10.4222 26.4375H11.906L17.1712 30.1985C17.4111 30.3692 17.7218 30.3915 17.9828 30.2572C18.243 30.1233 18.4062 29.8551 18.4062 29.5625V24.0938H20.1128C20.4363 25.0012 21.2954 25.6562 22.3125 25.6562C22.9437 25.6562 23.5149 25.4028 23.9368 24.9956L26.2472 26.156C26.2359 26.2493 26.2188 26.3411 26.2188 26.4375C26.2188 27.7299 27.2701 28.7812 28.5625 28.7812C29.8549 28.7812 30.9062 27.7299 30.9062 26.4375C30.9062 26.0768 30.8176 25.7389 30.6714 25.4333L33.8083 22.2964C34.1139 22.4426 34.4518 22.5312 34.8125 22.5312C36.1049 22.5312 37.1562 21.4799 37.1562 20.1875C37.1562 20.0911 37.1391 19.9993 37.1278 19.906L39.4382 18.7456C39.8601 19.1528 40.4313 19.4062 41.0625 19.4062C42.0796 19.4062 42.9388 18.7512 43.2623 17.8438H45.75C46.1818 17.8438 46.5312 17.4939 46.5312 17.0625C46.5312 16.6311 46.1818 16.2812 45.75 16.2812ZM9.03125 22.5312C9.03125 22.1006 9.38144 21.75 9.8125 21.75H11.375V24.875H9.8125C9.38144 24.875 9.03125 24.5244 9.03125 24.0938V22.5312ZM16.8438 28.0443L12.9375 25.2541V21.3709L16.8438 18.5807V28.0443ZM22.3125 24.0938C21.8814 24.0938 21.5312 23.7432 21.5312 23.3125C21.5312 22.8818 21.8814 22.5312 22.3125 22.5312C22.7436 22.5312 23.0938 22.8818 23.0938 23.3125C23.0938 23.7432 22.7436 24.0938 22.3125 24.0938ZM28.5625 27.2188C28.1314 27.2188 27.7812 26.8682 27.7812 26.4375C27.7812 26.0068 28.1314 25.6562 28.5625 25.6562C28.9936 25.6562 29.3438 26.0068 29.3438 26.4375C29.3438 26.8682 28.9936 27.2188 28.5625 27.2188ZM34.8125 20.9688C34.3814 20.9688 34.0312 20.6182 34.0312 20.1875C34.0312 19.7568 34.3814 19.4062 34.8125 19.4062C35.2436 19.4062 35.5938 19.7568 35.5938 20.1875C35.5938 20.6182 35.2436 20.9688 34.8125 20.9688ZM41.0625 17.8438C40.6314 17.8438 40.2812 17.4932 40.2812 17.0625C40.2812 16.6318 40.6314 16.2812 41.0625 16.2812C41.4936 16.2812 41.8438 16.6318 41.8438 17.0625C41.8438 17.4932 41.4936 17.8438 41.0625 17.8438Z" fill="black"/>
<path d="M12.9375 30.3438C9.92236 30.3438 7.46875 32.797 7.46875 35.8125C7.46875 38.828 9.92236 41.2812 12.9375 41.2812C15.9526 41.2812 18.4062 38.828 18.4062 35.8125C18.4062 32.797 15.9526 30.3438 12.9375 30.3438ZM16.7648 35.0312H13.7188V31.9852C15.2469 32.2967 16.4533 33.5031 16.7648 35.0312ZM12.9375 39.7188C10.7837 39.7188 9.03125 37.9663 9.03125 35.8125C9.03125 33.9262 10.3755 32.3482 12.1562 31.9852V35.8125C12.1562 36.2439 12.5057 36.5938 12.9375 36.5938H16.7648C16.4018 38.3745 14.8238 39.7188 12.9375 39.7188Z" fill="black"/>
</svg>
