<svg width="53" height="53" viewBox="0 0 53 53" fill="none" xmlns="http://www.w3.org/2000/svg">
<path d="M9.5 1L1 9.5V43.5L9.5 52H43.5L52 43.5V9.5L43.5 1H9.5Z" fill="#E6E6EB" stroke="black" stroke-width="1.5"/>
<path d="M10.9125 5L5 10.9125V42.0875L10.9125 48H42.0875L48 42.0875V10.9125L42.0875 5H10.9125Z" stroke="black" stroke-width="1.5"/>
<path d="M36.375 20.75C36.375 15.5808 32.1692 11.375 27 11.375C21.8308 11.375 17.625 15.5808 17.625 20.75C17.625 25.9192 21.8308 30.125 27 30.125C32.1692 30.125 36.375 25.9192 36.375 20.75ZM27 28.0417C22.9793 28.0417 19.7083 24.7707 19.7083 20.75C19.7083 16.7293 22.9793 13.4583 27 13.4583C31.0207 13.4583 34.2917 16.7293 34.2917 20.75C34.2917 24.7707 31.0207 28.0417 27 28.0417Z" fill="black"/>
<path d="M31.8008 35.5928C33.0355 33.8778 34.4616 32.2639 36.081 30.8004C39.0422 28.1246 40.6653 24.2961 40.534 20.2973C40.3057 13.3418 34.4631 7.47484 27.5091 7.2195C23.7941 7.09031 20.2724 8.42596 17.6016 11.0006C14.9298 13.5763 13.4583 17.039 13.4583 20.752C13.4583 24.7442 15.205 28.5121 18.2501 31.0899C19.764 32.3716 21.1178 33.887 22.3086 35.5763C16.9246 36.1561 11.375 37.8527 11.375 41.0645C11.375 44.8258 19.2353 46.7937 27 46.7937C34.7647 46.7937 42.625 44.8258 42.625 41.0645C42.625 37.8791 37.1375 36.1832 31.8008 35.5928ZM19.5959 29.4999C17.0192 27.3189 15.5417 24.1303 15.5417 20.752C15.5417 17.6102 16.7868 14.6795 19.0476 12.5006C21.2027 10.4228 24.0108 9.29369 26.9964 9.29369C27.1414 9.29369 27.2869 9.29623 27.4328 9.30182C33.3161 9.51748 38.2595 14.4807 38.4517 20.3655C38.5626 23.7509 37.1893 26.9908 34.6843 29.2552C31.3569 32.2622 28.7385 35.8435 27.0097 39.7289C25.2508 35.6456 22.7194 32.1442 19.5959 29.4999ZM27 44.7104C18.8594 44.7104 13.4583 42.5161 13.4583 41.0645C13.4583 39.922 17.0819 38.0569 23.5767 37.5475C24.5456 39.2183 25.3683 41.0262 26.0117 42.9566C26.1536 43.3818 26.5519 43.6687 27 43.6687C27.4486 43.6687 27.8464 43.3818 27.9883 42.9566C28.6103 41.09 29.4619 39.2845 30.4994 37.5614C36.9677 38.0877 40.5417 39.9354 40.5417 41.0645C40.5417 42.5161 35.1406 44.7104 27 44.7104Z" fill="black"/>
<path d="M26.9987 16.0625C26.4234 16.0625 25.957 16.5289 25.957 17.1042V21.2708C25.957 21.8461 26.4234 22.3125 26.9987 22.3125C27.574 22.3125 28.0404 21.8461 28.0404 21.2708V17.1042C28.0404 16.5289 27.574 16.0625 26.9987 16.0625Z" fill="black"/>
<path d="M26.9987 25.4427C27.574 25.4427 28.0404 24.9763 28.0404 24.401C28.0404 23.8257 27.574 23.3594 26.9987 23.3594C26.4234 23.3594 25.957 23.8257 25.957 24.401C25.957 24.9763 26.4234 25.4427 26.9987 25.4427Z" fill="black"/>
</svg>
