<svg width="53" height="53" viewBox="0 0 53 53" fill="none" xmlns="http://www.w3.org/2000/svg">
<path d="M9.5 1L1 9.5V43.5L9.5 52H43.5L52 43.5V9.5L43.5 1H9.5Z" fill="#E6E6EB" stroke="black" stroke-width="1.5"/>
<path d="M10.9125 5L5 10.9125V42.0875L10.9125 48H42.0875L48 42.0875V10.9125L42.0875 5H10.9125Z" stroke="black" stroke-width="1.5"/>
<path d="M31.8896 33.1774C31.5966 32.9557 31.4288 32.6177 31.4288 32.25C31.4288 31.8823 31.5966 31.5443 31.8896 31.3226C32.2039 31.085 32.2917 30.6505 32.0948 30.3091L30.7276 27.9409C30.53 27.5991 30.1081 27.4591 29.7473 27.6117C29.4085 27.7555 29.0316 27.7311 28.7135 27.5476C28.3953 27.3638 28.1863 27.049 28.1405 26.684C28.0917 26.2934 27.759 26 27.3654 26H24.631C24.2373 26 23.9047 26.2934 23.8558 26.684C23.8101 27.049 23.601 27.3638 23.2829 27.5476C22.9647 27.7311 22.5886 27.7555 22.2491 27.6117C21.8897 27.4599 21.4663 27.5991 21.2687 27.9409L19.9015 30.3091C19.7047 30.6505 19.7924 31.085 20.1068 31.3226C20.3997 31.5443 20.5676 31.8823 20.5676 32.25C20.5676 32.6177 20.3997 32.9557 20.1068 33.1774C19.7924 33.415 19.7047 33.8495 19.9015 34.1909L21.2687 36.5591C21.4655 36.9013 21.889 37.0409 22.2491 36.8883C22.5886 36.7456 22.9647 36.7696 23.2829 36.9524C23.601 37.1362 23.8101 37.451 23.8558 37.816C23.9047 38.2066 24.2373 38.5 24.631 38.5H27.3654C27.759 38.5 28.0917 38.2066 28.1405 37.816C28.1863 37.451 28.3953 37.1362 28.7135 36.9524C29.0316 36.7696 29.4085 36.7456 29.7473 36.8883C30.1081 37.0416 30.53 36.9013 30.7276 36.5591L32.0948 34.1909C32.2917 33.8495 32.2039 33.415 31.8896 33.1774ZM30.4423 33.9285L29.674 35.259C29.0774 35.1724 28.4709 35.2888 27.9322 35.5993C27.3951 35.9094 26.99 36.3794 26.7665 36.9375H25.2299C25.0064 36.3794 24.6012 35.9094 24.0641 35.5993C23.5255 35.2888 22.9174 35.1721 22.3223 35.259L21.554 33.9285C21.9256 33.4558 22.1301 32.8707 22.1301 32.25C22.1301 31.6293 21.9256 31.0442 21.554 30.5715L22.3223 29.241C22.9182 29.326 23.5262 29.2112 24.0641 28.9007C24.6012 28.5906 25.0063 28.1206 25.2299 27.5625H26.7665C26.99 28.1206 27.3951 28.5906 27.9322 28.9007C28.4709 29.2112 29.0766 29.3257 29.674 29.241L30.4423 30.5715C30.0707 31.0442 29.8663 31.6293 29.8663 32.25C29.8663 32.8707 30.0707 33.4558 30.4423 33.9285Z" fill="black"/>
<path d="M26 29.7109C24.6 29.7109 23.4609 30.85 23.4609 32.25C23.4609 33.65 24.6 34.7891 26 34.7891C27.4 34.7891 28.5391 33.65 28.5391 32.25C28.5391 30.85 27.4 29.7109 26 29.7109ZM26 33.2266C25.4614 33.2266 25.0234 32.7886 25.0234 32.25C25.0234 31.7114 25.4614 31.2734 26 31.2734C26.5386 31.2734 26.9766 31.7114 26.9766 32.25C26.9766 32.7886 26.5386 33.2266 26 33.2266Z" fill="black"/>
<path d="M16.4472 37.3215C17.2761 36.5377 17.7969 35.4312 17.7969 34.2031V32.6406C17.7969 30.2713 15.8689 28.3438 13.5 28.3438C11.1311 28.3438 9.20312 30.2713 9.20312 32.6406V34.2031C9.20312 35.4312 9.72388 36.5377 10.5528 37.3215C8.05366 38.0252 6.46875 39.6464 6.46875 41.7368V43.1875C6.46875 44.4799 7.52008 45.5312 8.8125 45.5312H18.1875C19.4799 45.5312 20.5312 44.4799 20.5312 43.1875V41.7368C20.5312 39.6464 18.9464 38.0252 16.4472 37.3215ZM13.5 29.9062C14.8738 29.9062 16.0033 30.9284 16.1949 32.25H15.5164C15.1144 32.25 14.7588 31.9937 14.6314 31.6122C14.5254 31.2933 14.2271 31.0781 13.8906 31.0781C13.5542 31.0781 13.2559 31.2933 13.1498 31.6122C13.0224 31.9937 12.6669 32.25 12.2648 32.25H10.8051C10.9967 30.9284 12.1262 29.9062 13.5 29.9062ZM10.7656 34.2031V33.8125H12.2648C12.8767 33.8125 13.4489 33.5905 13.8906 33.2109C14.3324 33.5905 14.9046 33.8125 15.5164 33.8125H16.2344V34.2031C16.2344 35.7107 15.0076 36.9375 13.5 36.9375C11.9924 36.9375 10.7656 35.7107 10.7656 34.2031ZM18.9688 43.1875C18.9688 43.6182 18.6186 43.9688 18.1875 43.9688H8.8125C8.38144 43.9688 8.03125 43.6182 8.03125 43.1875V41.7368C8.03125 39.8162 10.2797 38.7263 12.7188 38.534V40.8438C12.7188 41.2752 13.0682 41.625 13.5 41.625C13.9318 41.625 14.2812 41.2752 14.2812 40.8438V38.534C16.7203 38.7263 18.9688 39.8162 18.9688 41.7368V43.1875Z" fill="black"/>
<path d="M21.3125 23.6562H24.4375C24.8693 23.6562 25.2188 23.3064 25.2188 22.875C25.2188 22.4436 24.8693 22.0938 24.4375 22.0938H21.3125C20.8814 22.0938 20.5312 21.7432 20.5312 21.3125V19.8618C20.5312 17.9412 22.7797 16.8513 25.2188 16.659V18.9688C25.2188 19.4002 25.5682 19.75 26 19.75C26.4318 19.75 26.7812 19.4002 26.7812 18.9688V16.659C29.2203 16.8513 31.4688 17.9412 31.4688 19.8618V21.3125C31.4688 21.7432 31.1186 22.0938 30.6875 22.0938H27.5625C27.1307 22.0938 26.7812 22.4436 26.7812 22.875C26.7812 23.3064 27.1307 23.6562 27.5625 23.6562H30.6875C31.9799 23.6562 33.0312 22.6049 33.0312 21.3125V19.8618C33.0312 17.7714 31.4464 16.1502 28.9472 15.4465C29.7761 14.6627 30.2969 13.5562 30.2969 12.3281V10.7656C30.2969 8.39632 28.3689 6.46875 26 6.46875C23.6311 6.46875 21.7031 8.39632 21.7031 10.7656V12.3281C21.7031 13.5562 22.2239 14.6627 23.0528 15.4465C20.5537 16.1502 18.9688 17.7714 18.9688 19.8618V21.3125C18.9688 22.6049 20.0201 23.6562 21.3125 23.6562ZM26 8.03125C27.3738 8.03125 28.5033 9.0534 28.6949 10.375H28.0164C27.6144 10.375 27.2588 10.1187 27.1314 9.73718C27.0254 9.41827 26.7271 9.20312 26.3906 9.20312C26.0542 9.20312 25.7559 9.41827 25.6498 9.73718C25.5224 10.1187 25.1669 10.375 24.7648 10.375H23.3051C23.4967 9.0534 24.6262 8.03125 26 8.03125ZM23.2656 11.9375H24.7648C25.3767 11.9375 25.9489 11.7155 26.3906 11.3359C26.8324 11.7155 27.4046 11.9375 28.0164 11.9375H28.7344V12.3281C28.7344 13.8357 27.5076 15.0625 26 15.0625C24.4924 15.0625 23.2656 13.8357 23.2656 12.3281V11.9375Z" fill="black"/>
<path d="M41.4472 37.3215C42.2761 36.5377 42.7969 35.4312 42.7969 34.2031V32.6406C42.7969 30.2713 40.8689 28.3438 38.5 28.3438C36.1311 28.3438 34.2031 30.2713 34.2031 32.6406V34.2031C34.2031 35.4312 34.7239 36.5377 35.5528 37.3215C33.0537 38.0252 31.4688 39.6464 31.4688 41.7368V43.1875C31.4688 44.4799 32.5201 45.5312 33.8125 45.5312H36.9375C37.3693 45.5312 37.7188 45.1814 37.7188 44.75C37.7188 44.3186 37.3693 43.9688 36.9375 43.9688H33.8125C33.3814 43.9688 33.0312 43.6182 33.0312 43.1875V41.7368C33.0312 39.8162 35.2797 38.7263 37.7188 38.534V40.8438C37.7188 41.2752 38.0682 41.625 38.5 41.625C38.9318 41.625 39.2812 41.2752 39.2812 40.8438V38.534C41.7203 38.7263 43.9688 39.8162 43.9688 41.7368V43.1875C43.9688 43.6182 43.6186 43.9688 43.1875 43.9688H40.0625C39.6307 43.9688 39.2812 44.3186 39.2812 44.75C39.2812 45.1814 39.6307 45.5312 40.0625 45.5312H43.1875C44.4799 45.5312 45.5312 44.4799 45.5312 43.1875V41.7368C45.5312 39.6464 43.9464 38.0252 41.4472 37.3215ZM38.5 29.9062C39.8738 29.9062 41.0033 30.9284 41.1949 32.25H40.5164C40.1144 32.25 39.7588 31.9937 39.6314 31.6122C39.5254 31.2933 39.2271 31.0781 38.8906 31.0781C38.5542 31.0781 38.2559 31.2933 38.1498 31.6122C38.0224 31.9937 37.6669 32.25 37.2648 32.25H35.8051C35.9967 30.9284 37.1262 29.9062 38.5 29.9062ZM41.2344 34.2031C41.2344 35.7107 40.0076 36.9375 38.5 36.9375C36.9924 36.9375 35.7656 35.7107 35.7656 34.2031V33.8125H37.2648C37.8767 33.8125 38.4489 33.5905 38.8906 33.2109C39.3324 33.5905 39.9046 33.8125 40.5164 33.8125H41.2344V34.2031Z" fill="black"/>
</svg>
