<svg width="53" height="53" viewBox="0 0 53 53" fill="none" xmlns="http://www.w3.org/2000/svg">
<rect opacity="0.5" x="1" y="1" width="51" height="50" rx="8" fill="white"/>
<path d="M9.5 1L1 9.5V43.5L9.5 52H43.5L52 43.5V9.5L43.5 1H9.5Z" fill="#F2F2F7" stroke="black" stroke-width="1.5"/>
<path d="M10.9125 5L5 10.9125V42.0875L10.9125 48H42.0875L48 42.0875V10.9125L42.0875 5H10.9125Z" stroke="black" stroke-width="1.5"/>
<path d="M44.1875 12.1562H30.125C29.6932 12.1562 29.3438 12.5057 29.3438 12.9375C29.3438 13.3693 29.6932 13.7188 30.125 13.7188H44.1875C44.6186 13.7188 44.9688 14.0689 44.9688 14.5V39.5C44.9688 39.9311 44.6186 40.2812 44.1875 40.2812H9.8125C9.38144 40.2812 9.03125 39.9311 9.03125 39.5V14.5C9.03125 14.0689 9.38144 13.7188 9.8125 13.7188H23.875C24.3068 13.7188 24.6562 13.3693 24.6562 12.9375C24.6562 12.5057 24.3068 12.1562 23.875 12.1562H9.8125C8.52008 12.1562 7.46875 13.2076 7.46875 14.5V39.5C7.46875 40.7924 8.52008 41.8438 9.8125 41.8438H44.1875C45.4799 41.8438 46.5312 40.7924 46.5312 39.5V14.5C46.5312 13.2076 45.4799 12.1562 44.1875 12.1562Z" fill="black"/>
<path d="M20.796 23.5209C21.2481 22.9787 21.5312 22.2909 21.5312 21.5312C21.5312 19.8078 20.1297 18.4062 18.4062 18.4062C16.6828 18.4062 15.2812 19.8078 15.2812 21.5312C15.2812 22.2909 15.5644 22.9787 16.0165 23.5209C14.6328 24.0582 13.7188 25.053 13.7188 26.2188V28.5625C13.7188 28.9943 14.0682 29.3438 14.5 29.3438H22.3125C22.7443 29.3438 23.0938 28.9943 23.0938 28.5625V26.2188C23.0938 25.053 22.1797 24.0582 20.796 23.5209ZM16.8438 21.5312C16.8438 20.6699 17.5449 19.9688 18.4062 19.9688C19.2676 19.9688 19.9688 20.6699 19.9688 21.5312C19.9688 22.3926 19.2676 23.0938 18.4062 23.0938C17.5449 23.0938 16.8438 22.3926 16.8438 21.5312ZM21.5312 27.7812H15.2812V26.2188C15.2812 25.481 16.6179 24.6562 18.4062 24.6562C20.1946 24.6562 21.5312 25.481 21.5312 26.2188V27.7812Z" fill="black"/>
<path d="M10.5938 16.0625V31.6875C10.5938 32.1193 10.9432 32.4688 11.375 32.4688H25.4375C25.8693 32.4688 26.2188 32.1193 26.2188 31.6875V16.0625C26.2188 15.6307 25.8693 15.2812 25.4375 15.2812H11.375C10.9432 15.2812 10.5938 15.6307 10.5938 16.0625ZM12.1562 16.8438H24.6562V30.9062H12.1562V16.8438Z" fill="black"/>
<path d="M12.9375 34.0312H11.375C10.9432 34.0312 10.5938 34.3807 10.5938 34.8125C10.5938 35.2443 10.9432 35.5938 11.375 35.5938H12.9375C13.3693 35.5938 13.7188 35.2443 13.7188 34.8125C13.7188 34.3807 13.3693 34.0312 12.9375 34.0312Z" fill="black"/>
<path d="M12.9375 37.1562H11.375C10.9432 37.1562 10.5938 37.5057 10.5938 37.9375C10.5938 38.3693 10.9432 38.7188 11.375 38.7188H12.9375C13.3693 38.7188 13.7188 38.3693 13.7188 37.9375C13.7188 37.5057 13.3693 37.1562 12.9375 37.1562Z" fill="black"/>
<path d="M25.4375 34.0312H16.0625C15.6307 34.0312 15.2812 34.3807 15.2812 34.8125C15.2812 35.2443 15.6307 35.5938 16.0625 35.5938H25.4375C25.8693 35.5938 26.2188 35.2443 26.2188 34.8125C26.2188 34.3807 25.8693 34.0312 25.4375 34.0312Z" fill="black"/>
<path d="M25.4375 37.1562H16.0625C15.6307 37.1562 15.2812 37.5057 15.2812 37.9375C15.2812 38.3693 15.6307 38.7188 16.0625 38.7188H25.4375C25.8693 38.7188 26.2188 38.3693 26.2188 37.9375C26.2188 37.5057 25.8693 37.1562 25.4375 37.1562Z" fill="black"/>
<path d="M31.7655 34.1883C31.4207 33.9297 30.9309 33.9983 30.6722 34.3447L30.1252 35.0741L29.5782 34.3447C29.3195 33.9976 28.829 33.9289 28.4849 34.1883C28.1393 34.4469 28.0691 34.9367 28.3285 35.2816L29.149 36.3756L28.3285 37.4697C28.0691 37.8145 28.1392 38.3042 28.4847 38.5629C28.8106 38.8069 29.3184 38.7542 29.5782 38.4066L30.1252 37.6772L30.6722 38.4066C30.9282 38.7479 31.4259 38.8177 31.7655 38.563C32.1111 38.3044 32.1813 37.8145 31.9219 37.4697L31.1014 36.3756L31.9219 35.2816C32.1813 34.9367 32.1111 34.4469 31.7655 34.1883Z" fill="black"/>
<path d="M37.2343 34.1883C36.8902 33.9297 36.3996 33.9983 36.141 34.3447L35.5939 35.0741L35.0469 34.3447C34.7883 33.9976 34.2985 33.9289 33.9536 34.1883C33.608 34.4469 33.5378 34.9367 33.7972 35.2816L34.6178 36.3756L33.7972 37.4697C33.5378 37.8145 33.608 38.3044 33.9536 38.563C34.2815 38.8084 34.7841 38.7584 35.0469 38.4066L35.5939 37.6772C35.5939 37.6772 36.1377 38.4022 36.141 38.4066C36.3803 38.7257 36.8949 38.8175 37.2343 38.563C37.5799 38.3044 37.6501 37.8145 37.3907 37.4697L36.5701 36.3756L37.3907 35.2816C37.6501 34.9367 37.5799 34.4469 37.2343 34.1883Z" fill="black"/>
<path d="M42.703 34.1883C42.3582 33.9297 41.8684 33.9983 41.6097 34.3447L41.0627 35.0741L40.5157 34.3447C40.257 33.9976 39.7665 33.9289 39.4224 34.1883C39.0768 34.4469 39.0066 34.9367 39.266 35.2816L40.0865 36.3756L39.266 37.4697C39.0066 37.8145 39.0767 38.3041 39.4221 38.5628C39.7602 38.816 40.2645 38.7427 40.5157 38.4066L41.0627 37.6772C41.0627 37.6772 41.6077 38.4039 41.6097 38.4066C41.8483 38.7247 42.3644 38.817 42.703 38.563C43.0486 38.3044 43.1188 37.8145 42.8594 37.4697L42.0389 36.3756L42.8594 35.2816C43.1188 34.9367 43.0486 34.4469 42.703 34.1883Z" fill="black"/>
<path d="M28.5625 16.8438H42.625C43.0568 16.8438 43.4062 16.4943 43.4062 16.0625C43.4062 15.6307 43.0568 15.2812 42.625 15.2812H28.5625C28.1307 15.2812 27.7812 15.6307 27.7812 16.0625C27.7812 16.4943 28.1307 16.8438 28.5625 16.8438Z" fill="black"/>
<path d="M37.1562 19.1875C37.1562 18.7557 36.8068 18.4062 36.375 18.4062H28.5625C28.1307 18.4062 27.7812 18.7557 27.7812 19.1875C27.7812 19.6193 28.1307 19.9688 28.5625 19.9688H36.375C36.8068 19.9688 37.1562 19.6193 37.1562 19.1875Z" fill="black"/>
<path d="M28.5625 23.0938H30.125C30.5568 23.0938 30.9062 22.7443 30.9062 22.3125C30.9062 21.8807 30.5568 21.5312 30.125 21.5312H28.5625C28.1307 21.5312 27.7812 21.8807 27.7812 22.3125C27.7812 22.7443 28.1307 23.0938 28.5625 23.0938Z" fill="black"/>
<path d="M28.5625 26.2188H30.125C30.5568 26.2188 30.9062 25.8693 30.9062 25.4375C30.9062 25.0057 30.5568 24.6562 30.125 24.6562H28.5625C28.1307 24.6562 27.7812 25.0057 27.7812 25.4375C27.7812 25.8693 28.1307 26.2188 28.5625 26.2188Z" fill="black"/>
<path d="M28.5625 29.3438H30.125C30.5568 29.3438 30.9062 28.9943 30.9062 28.5625C30.9062 28.1307 30.5568 27.7812 30.125 27.7812H28.5625C28.1307 27.7812 27.7812 28.1307 27.7812 28.5625C27.7812 28.9943 28.1307 29.3438 28.5625 29.3438Z" fill="black"/>
<path d="M28.5625 32.4688H30.125C30.5568 32.4688 30.9062 32.1193 30.9062 31.6875C30.9062 31.2557 30.5568 30.9062 30.125 30.9062H28.5625C28.1307 30.9062 27.7812 31.2557 27.7812 31.6875C27.7812 32.1193 28.1307 32.4688 28.5625 32.4688Z" fill="black"/>
<path d="M42.625 21.5312H33.25C32.8182 21.5312 32.4688 21.8807 32.4688 22.3125C32.4688 22.7443 32.8182 23.0938 33.25 23.0938H42.625C43.0568 23.0938 43.4062 22.7443 43.4062 22.3125C43.4062 21.8807 43.0568 21.5312 42.625 21.5312Z" fill="black"/>
<path d="M33.25 26.2188H37.9375C38.3693 26.2188 38.7188 25.8693 38.7188 25.4375C38.7188 25.0057 38.3693 24.6562 37.9375 24.6562H33.25C32.8182 24.6562 32.4688 25.0057 32.4688 25.4375C32.4688 25.8693 32.8182 26.2188 33.25 26.2188Z" fill="black"/>
<path d="M43.4062 28.5625C43.4062 28.1307 43.0568 27.7812 42.625 27.7812H33.25C32.8182 27.7812 32.4688 28.1307 32.4688 28.5625C32.4688 28.9943 32.8182 29.3438 33.25 29.3438H42.625C43.0568 29.3438 43.4062 28.9943 43.4062 28.5625Z" fill="black"/>
<path d="M41.8438 31.6875C41.8438 31.2557 41.4943 30.9062 41.0625 30.9062H33.25C32.8182 30.9062 32.4688 31.2557 32.4688 31.6875C32.4688 32.1193 32.8182 32.4688 33.25 32.4688H41.0625C41.4943 32.4688 41.8438 32.1193 41.8438 31.6875Z" fill="black"/>
<path d="M27 13.7188C27.4315 13.7188 27.7812 13.369 27.7812 12.9375C27.7812 12.506 27.4315 12.1562 27 12.1562C26.5685 12.1562 26.2188 12.506 26.2188 12.9375C26.2188 13.369 26.5685 13.7188 27 13.7188Z" fill="black"/>
</svg>
