<svg width="53" height="53" viewBox="0 0 53 53" fill="none" xmlns="http://www.w3.org/2000/svg">
<path d="M9.5 1L1 9.5V43.5L9.5 52H43.5L52 43.5V9.5L43.5 1H9.5Z" fill="#F2F2F7" stroke="black" stroke-width="1.5"/>
<path d="M10.9125 5L5 10.9125V42.0875L10.9125 48H42.0875L48 42.0875V10.9125L42.0875 5H10.9125Z" stroke="black" stroke-width="1.5"/>
<path d="M41.0625 15.2812C40.0454 15.2812 39.1862 15.9363 38.8627 16.8438H34.4003C33.9951 15.9944 33.4564 15.2205 32.7983 14.5623L35.1261 12.9499C35.6738 13.4224 36.3777 13.7188 37.1562 13.7188C38.8797 13.7188 40.2812 12.3169 40.2812 10.5938C40.2812 8.87065 38.8797 7.46875 37.1562 7.46875C35.4328 7.46875 34.0312 8.87065 34.0312 10.5938C34.0312 10.9725 34.1092 11.3312 34.2331 11.6674L31.5401 13.5329C30.2389 12.6647 28.6781 12.1562 27 12.1562C25.3217 12.1562 23.7607 12.6648 22.4595 13.5332L19.7668 11.6676C19.8908 11.3313 19.9688 10.9726 19.9688 10.5938C19.9688 8.87065 18.5669 7.46875 16.8438 7.46875C15.1206 7.46875 13.7188 8.87065 13.7188 10.5938C13.7188 12.3169 15.1206 13.7188 16.8438 13.7188C17.6223 13.7188 18.3265 13.4222 18.8742 12.9495L21.2018 14.5622C20.5437 15.2204 20.0049 15.9944 19.5997 16.8438H15.1373C14.8138 15.9363 13.9546 15.2812 12.9375 15.2812C11.6451 15.2812 10.5938 16.3326 10.5938 17.625C10.5938 18.9174 11.6451 19.9688 12.9375 19.9688C13.9546 19.9688 14.8138 19.3137 15.1373 18.4062H19.0417C18.8876 19.0335 18.7969 19.6853 18.7969 20.3594C18.7969 20.7446 18.8317 21.1239 18.8824 21.4983C18.3519 21.9974 18.0156 22.7004 18.0156 23.4844C18.0156 24.9919 19.2424 26.2188 20.75 26.2188H20.8043C21.0112 27.8669 21.8591 29.3165 23.0938 30.3086V31.8279L20.3083 32.3822C17.3946 32.97 15.2812 35.5495 15.2812 38.5158V38.7188C15.2812 39.1502 15.6311 39.5 16.0625 39.5C16.4939 39.5 16.8438 39.1502 16.8438 38.7188V38.5158C16.8438 36.4198 18.2584 34.5979 20.2478 34.023L23.2746 37.6564C23.5401 37.9748 24.0123 38.0296 24.3436 37.7812L24.6698 37.5366L25.0258 38.4264L24.1141 44.9688H19.9688C18.2456 44.9688 16.8438 43.5669 16.8438 41.8438C16.8438 41.4123 16.4939 41.0625 16.0625 41.0625C15.6311 41.0625 15.2812 41.4123 15.2812 41.8438C15.2812 44.4286 17.3839 46.5312 19.9688 46.5312H30.9062C31.3377 46.5312 31.6875 46.1814 31.6875 45.75C31.6875 45.3186 31.3377 44.9688 30.9062 44.9688H29.8859L28.9742 38.4264L29.3302 37.5366L29.6562 37.7811C29.9884 38.0313 30.4588 37.9768 30.7254 37.6564L33.7523 34.0228C35.741 34.5969 37.1562 36.4193 37.1562 38.5158V41.8438C37.1562 43.5669 35.7544 44.9688 34.0312 44.9688C33.5998 44.9688 33.25 45.3186 33.25 45.75C33.25 46.1814 33.5998 46.5312 34.0312 46.5312C36.6161 46.5312 38.7188 44.4286 38.7188 41.8438V38.5158C38.7188 35.5495 36.6054 32.97 33.6936 32.3825L30.9062 31.8279V30.3086C32.1409 29.3165 32.9888 27.8669 33.1957 26.2188H33.25C34.7576 26.2188 35.9844 24.9919 35.9844 23.4844C35.9844 22.7004 35.6481 21.9974 35.1176 21.4983C35.1683 21.1239 35.2031 20.7446 35.2031 20.3594C35.2031 19.6853 35.1124 19.0335 34.9583 18.4062H38.8628C39.1863 19.3137 40.0454 19.9688 41.0625 19.9688C42.3549 19.9688 43.4062 18.9174 43.4062 17.625C43.4062 16.3326 42.3549 15.2812 41.0625 15.2812ZM12.9375 18.4062C12.5068 18.4062 12.1562 18.0557 12.1562 17.625C12.1562 17.1943 12.5068 16.8438 12.9375 16.8438C13.3682 16.8438 13.7188 17.1943 13.7188 17.625C13.7188 18.0557 13.3682 18.4062 12.9375 18.4062ZM37.1562 9.03125C38.0176 9.03125 38.7188 9.73201 38.7188 10.5938C38.7188 11.4555 38.0176 12.1562 37.1562 12.1562C36.2949 12.1562 35.5938 11.4555 35.5938 10.5938C35.5938 9.73201 36.2949 9.03125 37.1562 9.03125ZM16.8438 12.1562C15.982 12.1562 15.2812 11.4555 15.2812 10.5938C15.2812 9.73201 15.982 9.03125 16.8438 9.03125C17.7055 9.03125 18.4062 9.73201 18.4062 10.5938C18.4062 11.4555 17.7055 12.1562 16.8438 12.1562ZM20.75 24.6562C20.1038 24.6562 19.5781 24.1306 19.5781 23.4844C19.5781 22.8382 20.1038 22.3125 20.75 22.3125V24.6562ZM24.0001 36.0858L21.9673 33.6453L23.6856 33.3032L25.698 34.8125L24.0001 36.0858ZM27 33.8359L24.6562 32.0782V31.2274C25.3808 31.5218 26.171 31.6875 27 31.6875C27.829 31.6875 28.6192 31.5218 29.3438 31.2274V32.0782L27 33.8359ZM28.0353 36.5655L27.6428 37.5469H26.3572L25.9647 36.5655L27 35.7891L28.0353 36.5655ZM25.6915 44.9688L26.5079 39.1094H27.492L28.3085 44.9688H25.6915ZM32.0327 33.6453L29.9999 36.0858L28.302 34.8125L30.3144 33.3032L32.0327 33.6453ZM31.6875 25.4375C31.6875 28.0223 29.5848 30.125 27 30.125C24.4152 30.125 22.3125 28.0223 22.3125 25.4375V22.2274C23.3299 21.9966 24.1474 21.302 24.6925 20.2034C26.1276 20.6741 27.8724 20.6741 29.3075 20.2034C29.8526 21.302 30.6701 21.9966 31.6875 22.2274V25.4375ZM32.4688 20.75C32.125 20.75 31.0788 20.75 30.4757 18.9406C30.3267 18.4936 29.8048 18.2772 29.3849 18.4886C28.0475 19.1578 25.9525 19.1578 24.6151 18.4886C24.192 18.277 23.6735 18.494 23.5244 18.9403C22.9213 20.75 21.875 20.75 21.5312 20.75H20.75C20.6232 20.75 20.502 20.7706 20.3796 20.7874C20.371 20.6451 20.3594 20.5034 20.3594 20.3594C20.3594 16.6976 23.3383 13.7188 27 13.7188C30.6617 13.7188 33.6406 16.6976 33.6406 20.3594C33.6406 20.5034 33.629 20.6451 33.6204 20.7874C33.498 20.7706 33.3768 20.75 33.25 20.75H32.4688ZM33.25 24.6562V22.3125C33.8962 22.3125 34.4219 22.8382 34.4219 23.4844C34.4219 24.1306 33.8962 24.6562 33.25 24.6562ZM41.0625 18.4062C40.6314 18.4062 40.2812 18.0557 40.2812 17.625C40.2812 17.1943 40.6314 16.8438 41.0625 16.8438C41.4936 16.8438 41.8438 17.1943 41.8438 17.625C41.8438 18.0557 41.4936 18.4062 41.0625 18.4062Z" fill="black"/>
<path d="M27.922 26.7348C27.4139 27.2254 26.5861 27.2254 26.078 26.7348C25.7678 26.4353 25.2738 26.4437 24.9732 26.7539C24.6734 27.0644 24.6822 27.5592 24.9923 27.8586C25.5458 28.393 26.2729 28.6605 27 28.6605C27.727 28.6605 28.4541 28.393 29.0076 27.8586C29.3178 27.5592 29.3265 27.0644 29.0267 26.7539C28.7273 26.4437 28.2336 26.4353 27.922 26.7348Z" fill="black"/>
</svg>
