<svg width="44" height="64" viewBox="0 0 44 64" fill="none" xmlns="http://www.w3.org/2000/svg">
<path d="M9.12287 48.088H10.0829V58.936H9.12287V48.088ZM7.40687 52.384H9.48287V53.2H7.40687V52.384ZM6.72287 48.316H7.67087V58.396H6.72287V48.316ZM1.25087 49.336H5.39087V56.032H1.25087V49.336ZM4.45487 50.128H2.18687V55.24H4.45487V50.128ZM11.6639 54.304H21.5039V55.12H11.6639V54.304ZM16.0559 54.808H17.0399V58.936H16.0559V54.808ZM16.5599 48.52C18.8279 48.52 20.3519 49.444 20.3519 50.896C20.3519 52.348 18.8279 53.272 16.5599 53.272C14.3039 53.272 12.7679 52.348 12.7679 50.896C12.7679 49.444 14.3039 48.52 16.5599 48.52ZM16.5599 49.324C14.9039 49.324 13.7759 49.936 13.7759 50.896C13.7759 51.856 14.9039 52.468 16.5599 52.468C18.2159 52.468 19.3319 51.856 19.3319 50.896C19.3319 49.936 18.2159 49.324 16.5599 49.324ZM26.829 49.156H27.693V49.612C27.693 51.556 25.629 52.984 23.445 53.356L23.061 52.564C24.969 52.288 26.829 51.04 26.829 49.612V49.156ZM27.081 49.156H27.933V49.612C27.933 51.04 29.805 52.288 31.701 52.564L31.329 53.356C29.133 52.984 27.081 51.556 27.081 49.612V49.156ZM26.865 54.796H27.849V58.936H26.865V54.796ZM22.485 54.268H32.289V55.084H22.485V54.268ZM23.397 48.76H31.341V49.564H23.397V48.76ZM36.8101 48.868C38.5021 48.868 39.7141 49.912 39.7141 51.424C39.7141 52.948 38.5021 53.992 36.8101 53.992C35.1181 53.992 33.8941 52.948 33.8941 51.424C33.8941 49.912 35.1181 48.868 36.8101 48.868ZM36.8101 49.732C35.6821 49.732 34.8661 50.416 34.8661 51.424C34.8661 52.432 35.6821 53.128 36.8101 53.128C37.9261 53.128 38.7421 52.432 38.7421 51.424C38.7421 50.416 37.9261 49.732 36.8101 49.732ZM41.1301 48.076H42.1261V58.948H41.1301V48.076ZM33.4861 56.572L33.3421 55.744C35.3221 55.744 38.0581 55.732 40.4221 55.36L40.5061 56.092C38.0701 56.56 35.4181 56.572 33.4861 56.572Z" fill="#FF382B"/>
<path d="M21.988 35.7338C29.8191 35.7338 36.2828 29.2701 36.2828 21.4528C36.2828 13.6356 29.8052 7.17188 21.9742 7.17188C14.1569 7.17188 7.70703 13.6356 7.70703 21.4528C7.70703 29.2701 14.1708 35.7338 21.988 35.7338ZM17.817 20.0993C16.9607 20.0993 16.2563 19.3397 16.2563 18.29C16.2563 17.2128 16.9607 16.4669 17.817 16.4669C18.6595 16.4669 19.3777 17.2128 19.3777 18.29C19.3777 19.3397 18.6595 20.0993 17.817 20.0993ZM26.2143 20.0993C25.358 20.0993 24.6674 19.3397 24.6674 18.29C24.6674 17.2128 25.358 16.4669 26.2143 16.4669C27.0568 16.4669 27.7888 17.2128 27.7888 18.29C27.7888 19.3397 27.0568 20.0993 26.2143 20.0993Z" fill="#FF382B"/>
<path d="M26.3662 28.4435C26.6977 28.5954 27.043 28.4296 27.043 28.0844C27.043 27.1176 25.0127 25.1011 21.988 25.1011C18.9495 25.1011 16.9192 27.1176 16.9192 28.0844C16.9192 28.4296 17.2783 28.5954 17.596 28.4435C18.6456 27.9048 19.8749 27.2557 21.988 27.2557C24.0873 27.2557 25.3165 27.891 26.3662 28.4435Z" fill="#F5F5F5"/>
</svg>
