<svg width="44" height="64" viewBox="0 0 44 64" fill="none" xmlns="http://www.w3.org/2000/svg">
<path d="M17.2319 50.644H19.9679V51.472H17.2319V50.644ZM14.3879 48.748H15.1919V50.08C15.1919 52.18 14.0159 53.932 12.2039 54.664L11.6879 53.872C13.2959 53.272 14.3879 51.736 14.3879 50.08V48.748ZM14.5799 48.748H15.3839V50.116C15.3839 51.628 16.4399 53.056 18.0119 53.632L17.4719 54.4C15.7439 53.728 14.5799 52.048 14.5799 50.116V48.748ZM19.5959 48.1H20.5919V56.212H19.5959V48.1ZM13.6199 57.88H20.8559V58.696H13.6199V57.88ZM13.6199 55.312H14.6159V58.264H13.6199V55.312ZM22.941 53.272H23.637C25.341 53.272 26.349 53.236 27.561 52.996L27.657 53.812C26.409 54.052 25.377 54.1 23.637 54.1H22.941V53.272ZM22.941 48.88H27.141V49.696H23.901V53.716H22.941V48.88ZM23.601 51.04H27.009V51.82H23.601V51.04ZM30.669 48.088H31.617V54.664H30.669V48.088ZM28.917 50.92H30.969V51.736H28.917V50.92ZM28.281 48.292H29.217V54.604H28.281V48.292ZM24.345 55.24H31.617V58.936H30.633V56.056H24.345V55.24Z" fill="#8E8E93"/>
<path d="M20.7432 36.1484H23.2706C24.0993 36.1484 24.7208 35.6512 24.9004 34.8364L25.591 31.9222C26.0605 31.7564 26.5025 31.5769 26.9169 31.3835L29.472 32.958C30.1487 33.3862 30.9636 33.3171 31.5299 32.7508L33.3115 30.9692C33.8778 30.4029 33.9607 29.5604 33.5049 28.8698L31.9442 26.3424C32.1376 25.928 32.3171 25.486 32.4552 25.0579L35.397 24.3673C36.2119 24.1878 36.6953 23.5663 36.6953 22.7376V20.2515C36.6953 19.4367 36.2119 18.8013 35.397 18.6218L32.4828 17.9174C32.3309 17.434 32.1376 17.0059 31.9718 16.633L33.5325 14.0502C33.9745 13.3458 33.9192 12.5586 33.3253 11.9785L31.5299 10.1968C30.9498 9.67201 30.2178 9.57533 29.5134 9.96205L26.9169 11.5642C26.5163 11.3708 26.0744 11.1913 25.6048 11.0255L24.9004 8.06989C24.7208 7.25502 24.0993 6.75781 23.2706 6.75781H20.7432C19.9007 6.75781 19.2792 7.25502 19.0996 8.06989L18.409 11.0117C17.9395 11.1636 17.4837 11.3432 17.0693 11.5504L14.4866 9.96205C13.7822 9.57533 13.064 9.6582 12.4701 10.1968L10.6747 11.9785C10.0808 12.5586 10.0255 13.3458 10.4675 14.0502L12.0282 16.633C11.8624 17.0059 11.6829 17.434 11.5172 17.9174L8.60296 18.6218C7.78809 18.8013 7.30469 19.4367 7.30469 20.2515V22.7376C7.30469 23.5663 7.78809 24.1878 8.60296 24.3673L11.5448 25.0579C11.6829 25.486 11.8624 25.928 12.0558 26.3424L10.4951 28.8698C10.0393 29.5604 10.1222 30.4029 10.7023 30.9692L12.4701 32.7508C13.0364 33.3171 13.8513 33.3862 14.5419 32.958L17.0831 31.3835C17.4975 31.5769 17.9395 31.7564 18.409 31.9222L19.0996 34.8364C19.2792 35.6512 19.9007 36.1484 20.7432 36.1484ZM22 26.2871C19.3482 26.2871 17.1798 24.1049 17.1798 21.4393C17.1798 18.8013 19.3482 16.633 22 16.633C24.6656 16.633 26.834 18.8013 26.834 21.4393C26.834 24.1049 24.6656 26.2871 22 26.2871Z" fill="#8E8E93"/>
</svg>
