<svg width="53" height="53" viewBox="0 0 53 53" fill="none" xmlns="http://www.w3.org/2000/svg">
<path d="M9.5 1L1 9.5V43.5L9.5 52H43.5L52 43.5V9.5L43.5 1H9.5Z" fill="#E6E6EB" stroke="black" stroke-width="1.5"/>
<path d="M10.9125 5L5 10.9125V42.0875L10.9125 48H42.0875L48 42.0875V10.9125L42.0875 5H10.9125Z" stroke="black" stroke-width="1.5"/>
<path d="M42.9153 37.8269L38.2671 35.0925C38.0252 34.9499 37.7254 34.9483 37.4831 35.088C37.2401 35.2268 37.0898 35.4862 37.0898 35.7662V41.235C37.0898 41.515 37.2401 41.7744 37.4831 41.9132C37.6033 41.9819 37.7372 42.0162 37.8711 42.0162C38.008 42.0162 38.145 41.9803 38.2671 41.9086L42.9153 39.1743C43.1541 39.0339 43.3006 38.7775 43.3006 38.5006C43.3006 38.2236 43.1541 37.9673 42.9153 37.8269ZM38.6523 39.8693V37.1319L40.9785 38.5006L38.6523 39.8693Z" fill="black"/>
<path d="M14.5 20.5312C18.1125 20.5312 21.0949 17.7914 21.4851 14.2812H34.0936C34.2267 15.2055 34.5903 16.0538 35.1263 16.769L33.3149 18.5804C33.0097 18.8856 33.0097 19.38 33.3149 19.6851C33.62 19.9903 34.1144 19.9903 34.4196 19.6851L36.231 17.8737C37.1442 18.558 38.2736 18.9688 39.5 18.9688C42.5155 18.9688 44.9688 16.5155 44.9688 13.5C44.9688 10.4845 42.5155 8.03125 39.5 8.03125C36.7504 8.03125 34.4747 10.073 34.0936 12.7188H21.4851C21.0949 9.20861 18.1125 6.46875 14.5 6.46875C10.6231 6.46875 7.46875 9.62313 7.46875 13.5C7.46875 17.3769 10.6231 20.5312 14.5 20.5312ZM39.5 9.59375C41.6538 9.59375 43.4062 11.3462 43.4062 13.5C43.4062 15.6538 41.6538 17.4062 39.5 17.4062C37.3462 17.4062 35.5938 15.6538 35.5938 13.5C35.5938 11.3462 37.3462 9.59375 39.5 9.59375ZM14.5 8.03125C17.5155 8.03125 19.9688 10.4845 19.9688 13.5C19.9688 16.5155 17.5155 18.9688 14.5 18.9688C11.4845 18.9688 9.03125 16.5155 9.03125 13.5C9.03125 10.4845 11.4845 8.03125 14.5 8.03125Z" fill="black"/>
<path d="M39.5 15.8438C40.7924 15.8438 41.8438 14.7924 41.8438 13.5C41.8438 12.2076 40.7924 11.1562 39.5 11.1562C38.2076 11.1562 37.1562 12.2076 37.1562 13.5C37.1562 14.7924 38.2076 15.8438 39.5 15.8438ZM39.5 12.7188C39.9307 12.7188 40.2812 13.0693 40.2812 13.5C40.2812 13.9307 39.9307 14.2812 39.5 14.2812C39.0693 14.2812 38.7188 13.9307 38.7188 13.5C38.7188 13.0693 39.0693 12.7188 39.5 12.7188Z" fill="black"/>
<path d="M39.5 31.4688C35.8875 31.4688 32.9051 34.2086 32.5149 37.7188H19.9064C19.7732 36.7945 19.4097 35.9462 18.8737 35.231L20.6851 33.4196C20.9903 33.1144 20.9903 32.62 20.6851 32.3149C20.38 32.0097 19.8856 32.0097 19.5804 32.3149L17.769 34.1263C16.8558 33.442 15.7264 33.0312 14.5 33.0312C11.4845 33.0312 9.03125 35.4845 9.03125 38.5C9.03125 41.5155 11.4845 43.9688 14.5 43.9688C17.2496 43.9688 19.5253 41.927 19.9064 39.2812H32.5149C32.9051 42.7914 35.8875 45.5312 39.5 45.5312C43.3769 45.5312 46.5312 42.3769 46.5312 38.5C46.5312 34.6231 43.3769 31.4688 39.5 31.4688ZM14.5 42.4062C12.3462 42.4062 10.5938 40.6538 10.5938 38.5C10.5938 36.3462 12.3462 34.5938 14.5 34.5938C16.6538 34.5938 18.4062 36.3462 18.4062 38.5C18.4062 40.6538 16.6538 42.4062 14.5 42.4062ZM39.5 43.9688C36.4845 43.9688 34.0312 41.5155 34.0312 38.5C34.0312 35.4845 36.4845 33.0312 39.5 33.0312C42.5155 33.0312 44.9688 35.4845 44.9688 38.5C44.9688 41.5155 42.5155 43.9688 39.5 43.9688Z" fill="black"/>
<path d="M14.5 36.1562C13.2076 36.1562 12.1562 37.2076 12.1562 38.5C12.1562 39.7924 13.2076 40.8438 14.5 40.8438C15.7924 40.8438 16.8438 39.7924 16.8438 38.5C16.8438 37.2076 15.7924 36.1562 14.5 36.1562ZM14.5 39.2812C14.0693 39.2812 13.7188 38.9307 13.7188 38.5C13.7188 38.0693 14.0693 37.7188 14.5 37.7188C14.9307 37.7188 15.2812 38.0693 15.2812 38.5C15.2812 38.9307 14.9307 39.2812 14.5 39.2812Z" fill="black"/>
<path d="M33.6642 24.851C33.9785 24.613 34.0662 24.1785 33.8694 23.8375L32.3069 21.1313C32.1101 20.7895 31.6897 20.648 31.3265 20.8021C30.9073 20.9791 30.4396 20.9497 30.0459 20.7224C29.6515 20.4946 29.3928 20.1048 29.3364 19.6531C29.2876 19.2621 28.9553 18.9688 28.5612 18.9688H25.4362C25.0422 18.9688 24.7099 19.2621 24.6611 19.6531C24.6046 20.1048 24.346 20.4946 23.9516 20.7224C23.5571 20.9497 23.091 20.9791 22.671 20.8021C22.3074 20.6487 21.8878 20.7903 21.6906 21.1313L20.1281 23.8375C19.9312 24.1785 20.019 24.613 20.3333 24.851C20.6965 25.1257 20.9044 25.5445 20.9044 26C20.9044 26.4555 20.6961 26.8743 20.3333 27.1482C20.0194 27.3863 19.9312 27.8211 20.1281 28.1622L21.6906 30.8691C21.8874 31.2101 22.3082 31.352 22.671 31.1979C23.0917 31.0217 23.5571 31.0507 23.9516 31.278C24.346 31.5054 24.6046 31.8952 24.6611 32.3469C24.7099 32.7375 25.0422 33.0312 25.4362 33.0312H28.5612C28.9553 33.0312 29.2876 32.7375 29.3364 32.3469C29.3928 31.8952 29.6515 31.5054 30.0459 31.278C30.4396 31.0507 30.9065 31.0217 31.3265 31.1979C31.69 31.3528 32.11 31.2109 32.3069 30.8691L33.8694 28.1622C34.0662 27.8211 33.9781 27.3863 33.6641 27.1482C33.3014 26.8743 33.0931 26.4555 33.0931 26C33.0931 25.5445 33.301 25.1257 33.6642 24.851ZM32.2119 27.9074L31.2575 29.5614C30.5777 29.4439 29.8788 29.569 29.2647 29.9246C28.6501 30.2793 28.1935 30.8233 27.9532 31.4688H26.0443C25.804 30.8233 25.3474 30.2793 24.7328 29.9246C24.1186 29.569 23.4194 29.4454 22.74 29.5614L21.7856 27.9074C22.2243 27.3771 22.4669 26.7099 22.4669 26.0004C22.4669 25.2905 22.2243 24.6233 21.7856 24.0923L22.74 22.439C23.4198 22.555 24.1186 22.4302 24.7328 22.0754C25.3477 21.7207 25.804 21.1767 26.0443 20.5313H27.9532C28.1935 21.1767 28.6497 21.7207 29.2647 22.0754C29.8784 22.4302 30.5773 22.5538 31.2575 22.439L32.2119 24.0923C31.7732 24.6233 31.5306 25.2905 31.5306 26.0004C31.5306 26.7099 31.7732 27.3771 32.2119 27.9074Z" fill="black"/>
<path d="M27 22.875C25.2769 22.875 23.875 24.2769 23.875 26C23.875 27.7235 25.2769 29.125 27 29.125C28.7231 29.125 30.125 27.7235 30.125 26C30.125 24.2769 28.7231 22.875 27 22.875ZM27 27.5625C26.1383 27.5625 25.4375 26.8614 25.4375 26C25.4375 25.1383 26.1383 24.4375 27 24.4375C27.8617 24.4375 28.5625 25.1383 28.5625 26C28.5625 26.8614 27.8617 27.5625 27 27.5625Z" fill="black"/>
<path d="M13.4899 15.6149L15.0524 14.0524C15.1989 13.9059 15.2813 13.7071 15.2813 13.5V10.375C15.2813 9.94355 14.9314 9.59375 14.5 9.59375C14.0686 9.59375 13.7188 9.94355 13.7188 10.375V13.1765L12.3851 14.5101C12.08 14.8153 12.08 15.3096 12.3851 15.6148C12.6704 15.9002 13.1771 15.9277 13.4899 15.6149Z" fill="black"/>
</svg>
