<svg width="44" height="64" viewBox="0 0 44 64" fill="none" xmlns="http://www.w3.org/2000/svg">
<path d="M16.0199 49.156H16.8839V49.612C16.8839 51.556 14.8199 52.984 12.6359 53.356L12.2519 52.564C14.1599 52.288 16.0199 51.04 16.0199 49.612V49.156ZM16.2719 49.156H17.1239V49.612C17.1239 51.04 18.9959 52.288 20.8919 52.564L20.5199 53.356C18.3239 52.984 16.2719 51.556 16.2719 49.612V49.156ZM16.0559 54.796H17.0399V58.936H16.0559V54.796ZM11.6759 54.268H21.4799V55.084H11.6759V54.268ZM12.5879 48.76H20.5319V49.564H12.5879V48.76ZM26.001 48.868C27.693 48.868 28.905 49.912 28.905 51.424C28.905 52.948 27.693 53.992 26.001 53.992C24.309 53.992 23.085 52.948 23.085 51.424C23.085 49.912 24.309 48.868 26.001 48.868ZM26.001 49.732C24.873 49.732 24.057 50.416 24.057 51.424C24.057 52.432 24.873 53.128 26.001 53.128C27.117 53.128 27.933 52.432 27.933 51.424C27.933 50.416 27.117 49.732 26.001 49.732ZM30.321 48.076H31.317V58.948H30.321V48.076ZM22.677 56.572L22.533 55.744C24.513 55.744 27.249 55.732 29.613 55.36L29.697 56.092C27.261 56.56 24.609 56.572 22.677 56.572Z" fill="#FFCD00"/>
<path d="M21.988 35.7338C29.8191 35.7338 36.2828 29.2701 36.2828 21.4528C36.2828 13.6356 29.8052 7.17188 21.9742 7.17188C14.1569 7.17188 7.70703 13.6356 7.70703 21.4528C7.70703 29.2701 14.1708 35.7338 21.988 35.7338ZM17.817 20.0993C16.9607 20.0993 16.2563 19.3397 16.2563 18.29C16.2563 17.2128 16.9607 16.4669 17.817 16.4669C18.6595 16.4669 19.3777 17.2128 19.3777 18.29C19.3777 19.3397 18.6595 20.0993 17.817 20.0993ZM26.2143 20.0993C25.358 20.0993 24.6674 19.3397 24.6674 18.29C24.6674 17.2128 25.358 16.4669 26.2143 16.4669C27.0568 16.4669 27.7888 17.2128 27.7888 18.29C27.7888 19.3397 27.0568 20.0993 26.2143 20.0993Z" fill="#FFCD00"/>
<path d="M22 26C20.0087 26 17.0005 26.0027 17 26.9992C16.9995 28 19.897 28 22 28H22.0028C24.1056 28 27 28 27 26.9992C27 26.0027 23.9913 26 22 26Z" fill="#F5F5F5"/>
</svg>
