<svg width="53" height="53" viewBox="0 0 53 53" fill="none" xmlns="http://www.w3.org/2000/svg">
<path d="M9.5 1L1 9.5V43.5L9.5 52H43.5L52 43.5V9.5L43.5 1H9.5Z" fill="#F2F2F7" stroke="black" stroke-width="1.5"/>
<path d="M10.9125 5L5 10.9125V42.0875L10.9125 48H42.0875L48 42.0875V10.9125L42.0875 5H10.9125Z" stroke="black" stroke-width="1.5"/>
<path d="M30.125 13.1562H33.25C33.6818 13.1562 34.0312 12.8064 34.0312 12.375V9.25C34.0312 8.81855 33.6818 8.46875 33.25 8.46875H30.125C29.6932 8.46875 29.3438 8.81855 29.3438 9.25V12.375C29.3438 12.8064 29.6932 13.1562 30.125 13.1562ZM30.9062 10.0312H32.4688V11.5938H30.9062V10.0312Z" fill="black"/>
<path d="M36.375 10.0312H45.75C46.1818 10.0312 46.5312 9.68145 46.5312 9.25C46.5312 8.81855 46.1818 8.46875 45.75 8.46875H36.375C35.9432 8.46875 35.5938 8.81855 35.5938 9.25C35.5938 9.68145 35.9432 10.0312 36.375 10.0312Z" fill="black"/>
<path d="M36.375 13.1562H42.625C43.0568 13.1562 43.4062 12.8064 43.4062 12.375C43.4062 11.9436 43.0568 11.5938 42.625 11.5938H36.375C35.9432 11.5938 35.5938 11.9436 35.5938 12.375C35.5938 12.8064 35.9432 13.1562 36.375 13.1562Z" fill="black"/>
<path d="M45.75 14.7188H36.375C35.9432 14.7188 35.5938 15.0686 35.5938 15.5C35.5938 15.9314 35.9432 16.2812 36.375 16.2812H45.75C46.1818 16.2812 46.5312 15.9314 46.5312 15.5C46.5312 15.0686 46.1818 14.7188 45.75 14.7188Z" fill="black"/>
<path d="M42.625 19.4062C43.0568 19.4062 43.4062 19.0564 43.4062 18.625C43.4062 18.1936 43.0568 17.8438 42.625 17.8438H36.375C35.9432 17.8438 35.5938 18.1936 35.5938 18.625C35.5938 19.0564 35.9432 19.4062 36.375 19.4062H42.625Z" fill="black"/>
<path d="M45.75 20.9688H30.125C29.6932 20.9688 29.3438 21.3186 29.3438 21.75C29.3438 22.1814 29.6932 22.5312 30.125 22.5312H45.75C46.1818 22.5312 46.5312 22.1814 46.5312 21.75C46.5312 21.3186 46.1818 20.9688 45.75 20.9688Z" fill="black"/>
<path d="M30.614 18.6594C30.9112 18.9566 31.4233 18.9549 31.7188 18.6594L33.8024 16.5758C34.1075 16.2706 34.1075 15.7762 33.8024 15.4711C33.4972 15.1659 33.0028 15.1659 32.6976 15.4711L31.1664 17.0019L30.6774 16.5129C30.3722 16.2077 29.8778 16.2077 29.5726 16.5129C29.2675 16.8177 29.2675 17.3124 29.5726 17.6176C29.5726 17.6176 30.6079 18.6532 30.614 18.6594Z" fill="black"/>
<path d="M19.1875 29.6599C19.9146 29.6599 20.6416 29.3929 21.1952 28.8588C21.5053 28.559 21.5141 28.0642 21.2142 27.7537C20.9148 27.444 20.4211 27.4352 20.1095 27.7347C19.6014 28.2252 18.7736 28.2252 18.2655 27.7347C17.9553 27.4352 17.4613 27.444 17.1607 27.7537C16.8609 28.0642 16.8697 28.559 17.1798 28.8588C17.7333 29.3929 18.4604 29.6599 19.1875 29.6599Z" fill="black"/>
<path d="M25.8792 33.3822L23.0938 32.8279V31.3086C23.1046 31.2999 23.1164 31.2924 23.1273 31.2836C24.8776 32.0954 27.2227 31.8896 28.9109 31.0427C29.5488 30.7227 29.4217 29.7192 28.7159 29.5778C28.6868 29.5717 26.1397 29.0363 25.5588 27.2065C27.009 27.1415 28.1719 25.9504 28.1719 24.4844C28.1719 23.4723 27.6127 22.597 26.7931 22.1242C26.799 22.002 26.8047 21.8799 26.8047 21.75C26.8047 17.55 23.3875 14.1328 19.1875 14.1328C18.3759 14.1328 17.5949 14.2632 16.8608 14.4994C16.2066 13.661 15.2075 13.1562 14.1094 13.1562C12.1707 13.1562 10.5938 14.7332 10.5938 16.6719C10.5938 17.77 11.0985 18.7691 11.9369 19.4233C11.7007 20.1574 11.5703 20.9384 11.5703 21.75C11.5703 21.8799 11.576 22.002 11.5819 22.1242C10.7623 22.597 10.2031 23.4723 10.2031 24.4844C10.2031 25.9919 11.4299 27.2188 12.9375 27.2188H12.9918C13.1987 28.8669 14.0466 30.3165 15.2812 31.3086V32.8279L12.4939 33.3825C9.58209 33.97 7.46875 36.5495 7.46875 39.5158V42.8438C7.46875 45.4286 9.57141 47.5312 12.1562 47.5312C12.5877 47.5312 12.9375 47.1814 12.9375 46.75C12.9375 46.3186 12.5877 45.9688 12.1562 45.9688C10.4331 45.9688 9.03125 44.5669 9.03125 42.8438V39.5158C9.03125 37.4193 10.4465 35.5969 12.4352 35.0228L15.4621 38.6564C15.7287 38.9768 16.1991 39.0313 16.5313 38.7811L16.8573 38.5366L17.2133 39.4264L16.3016 45.9688H15.2812C14.8498 45.9688 14.5 46.3186 14.5 46.75C14.5 47.1814 14.8498 47.5312 15.2812 47.5312H26.2188C28.8036 47.5312 30.9062 45.4286 30.9062 42.8438C30.9062 42.4123 30.5564 42.0625 30.125 42.0625C29.6936 42.0625 29.3438 42.4123 29.3438 42.8438C29.3438 44.5669 27.9419 45.9688 26.2188 45.9688H22.0734L21.1618 39.4264L21.5177 38.5366L21.8439 38.7812C22.1752 39.0296 22.6474 38.9748 22.9129 38.6564L25.9397 35.0229C27.9291 35.5979 29.3438 37.4198 29.3438 39.5158V39.7188C29.3438 40.1502 29.6936 40.5 30.125 40.5C30.5564 40.5 30.9062 40.1502 30.9062 39.7188V39.5158C30.9062 36.5495 28.7929 33.97 25.8792 33.3822ZM26.1871 30.2194C25.5837 30.291 24.9118 30.2751 24.2628 30.071C24.4869 29.7588 24.6817 29.4254 24.8461 29.0741C25.2331 29.5361 25.6987 29.9181 26.1871 30.2194ZM25.4375 23.3125C26.0837 23.3125 26.6094 23.8382 26.6094 24.4844C26.6094 25.1306 26.0837 25.6562 25.4375 25.6562V23.3125ZM12.9375 25.6562C12.2913 25.6562 11.7656 25.1306 11.7656 24.4844C11.7656 23.8382 12.2913 23.3125 12.9375 23.3125V25.6562ZM12.6209 17.9086C12.3343 17.5669 12.1562 17.1404 12.1562 16.6719C12.1562 15.595 13.0325 14.7188 14.1094 14.7188C14.5779 14.7188 15.0044 14.8968 15.3461 15.1834C14.221 15.8442 13.2817 16.7835 12.6209 17.9086ZM13.1328 21.75C13.1328 18.4114 15.8489 15.6953 19.1875 15.6953C22.5261 15.6953 25.2422 18.4114 25.2422 21.75H24.6562C22.4754 21.75 19.5907 21.3941 18.235 19.6996C18.0564 19.4761 17.7703 19.3654 17.4877 19.4185C17.2061 19.4688 16.9742 19.6691 16.8838 19.9403C16.8777 19.9586 16.2513 21.75 13.7188 21.75H13.1328ZM14.5 26.4375V23.2675C16.2342 23.0615 17.242 22.186 17.7917 21.4616C19.152 22.5843 21.1906 23.2004 23.875 23.2984V26.4375C23.875 29.0223 21.7723 31.125 19.1875 31.125C16.6027 31.125 14.5 29.0223 14.5 26.4375ZM19.1875 34.8359L16.8438 33.0782V32.2274C17.5683 32.5218 18.3585 32.6875 19.1875 32.6875C20.0165 32.6875 20.8067 32.5218 21.5312 32.2274V33.0782L19.1875 34.8359ZM20.2228 37.5655L19.8303 38.5469H18.5447L18.1522 37.5655L19.1875 36.7891L20.2228 37.5655ZM16.1876 37.0858L14.1548 34.6453L15.8731 34.3032L17.8855 35.8125L16.1876 37.0858ZM17.879 45.9688L18.6954 40.1094H19.6795L20.496 45.9688H17.879ZM22.1874 37.0858L20.4895 35.8125L22.5019 34.3032L24.2202 34.6454L22.1874 37.0858Z" fill="black"/>
</svg>
