<svg width="53" height="53" viewBox="0 0 53 53" fill="none" xmlns="http://www.w3.org/2000/svg">
<path d="M9.5 1L1 9.5V43.5L9.5 52H43.5L52 43.5V9.5L43.5 1H9.5Z" fill="#E6E6EB" stroke="black" stroke-width="1.5"/>
<path d="M10.9125 5L5 10.9125V42.0875L10.9125 48H42.0875L48 42.0875V10.9125L42.0875 5H10.9125Z" stroke="black" stroke-width="1.5"/>
<path d="M16.625 16.8438C14.4712 16.8438 12.7188 18.5962 12.7188 20.75C12.7188 22.9038 14.4712 24.6562 16.625 24.6562H35.375C37.5288 24.6562 39.2812 22.9038 39.2812 20.75C39.2812 18.5962 37.5288 16.8438 35.375 16.8438H29.9062V15.3392L31.0812 14.6534C31.3215 14.5137 31.4688 14.2566 31.4688 13.9789V12.1562C31.4688 11.7244 31.1193 11.375 30.6875 11.375C30.2557 11.375 29.9062 11.7244 29.9062 12.1562V13.5303L28.7313 14.2162C28.491 14.3558 28.3438 14.6129 28.3438 14.8906V16.8438H26.7812V14.5C26.7812 14.0682 26.4314 13.7188 26 13.7188C25.5686 13.7188 25.2188 14.0682 25.2188 14.5V16.8438H23.6562V14.8906C23.6562 14.6129 23.5086 14.3558 23.2687 14.2162L22.0938 13.5303V12.1562C22.0938 11.7244 21.7439 11.375 21.3125 11.375C20.8811 11.375 20.5312 11.7244 20.5312 12.1562V13.9789C20.5312 14.2566 20.6789 14.5137 20.9188 14.6534L22.0938 15.3392V16.8438H16.625ZM37.7188 20.75C37.7188 22.0424 36.6674 23.0938 35.375 23.0938H16.625C15.3326 23.0938 14.2812 22.0424 14.2812 20.75C14.2812 19.4576 15.3326 18.4062 16.625 18.4062H35.375C36.6674 18.4062 37.7188 19.4576 37.7188 20.75Z" fill="black"/>
<path d="M16.625 21.5312C17.0565 21.5312 17.4062 21.1815 17.4062 20.75C17.4062 20.3185 17.0565 19.9688 16.625 19.9688C16.1935 19.9688 15.8438 20.3185 15.8438 20.75C15.8438 21.1815 16.1935 21.5312 16.625 21.5312Z" fill="black"/>
<path d="M19.75 21.5312C20.1815 21.5312 20.5312 21.1815 20.5312 20.75C20.5312 20.3185 20.1815 19.9688 19.75 19.9688C19.3185 19.9688 18.9688 20.3185 18.9688 20.75C18.9688 21.1815 19.3185 21.5312 19.75 21.5312Z" fill="black"/>
<path d="M22.875 21.5312C23.3065 21.5312 23.6562 21.1815 23.6562 20.75C23.6562 20.3185 23.3065 19.9688 22.875 19.9688C22.4435 19.9688 22.0938 20.3185 22.0938 20.75C22.0938 21.1815 22.4435 21.5312 22.875 21.5312Z" fill="black"/>
<path d="M26 21.5312C26.4315 21.5312 26.7812 21.1815 26.7812 20.75C26.7812 20.3185 26.4315 19.9688 26 19.9688C25.5685 19.9688 25.2188 20.3185 25.2188 20.75C25.2188 21.1815 25.5685 21.5312 26 21.5312Z" fill="black"/>
<path d="M29.125 21.5312C29.5565 21.5312 29.9062 21.1815 29.9062 20.75C29.9062 20.3185 29.5565 19.9688 29.125 19.9688C28.6935 19.9688 28.3438 20.3185 28.3438 20.75C28.3438 21.1815 28.6935 21.5312 29.125 21.5312Z" fill="black"/>
<path d="M32.25 21.5312C32.6815 21.5312 33.0312 21.1815 33.0312 20.75C33.0312 20.3185 32.6815 19.9688 32.25 19.9688C31.8185 19.9688 31.4688 20.3185 31.4688 20.75C31.4688 21.1815 31.8185 21.5312 32.25 21.5312Z" fill="black"/>
<path d="M35.375 21.5312C35.8065 21.5312 36.1562 21.1815 36.1562 20.75C36.1562 20.3185 35.8065 19.9688 35.375 19.9688C34.9435 19.9688 34.5938 20.3185 34.5938 20.75C34.5938 21.1815 34.9435 21.5312 35.375 21.5312Z" fill="black"/>
<path d="M42.4062 29.3438C41.3891 29.3438 40.53 29.9988 40.2065 30.9062H37.5005L36.4294 27.6934C39.8069 27.182 42.4062 24.268 42.4062 20.75C42.4062 17.1222 39.6444 14.1269 36.112 13.7569C35.7435 10.6601 33.1014 8.25 29.9062 8.25C28.9434 8.25 27.9928 8.47659 27.1269 8.90918C25.9073 7.97687 24.4177 7.46875 22.875 7.46875C19.2484 7.46875 16.2546 10.2283 15.8827 13.7577C12.3533 14.1292 9.59375 17.1237 9.59375 20.75C9.59375 24.2679 12.1933 27.1818 15.5703 27.6933L14.4995 30.9062H11.7935C11.47 29.9988 10.6109 29.3438 9.59375 29.3438C8.30133 29.3438 7.25 30.3951 7.25 31.6875C7.25 32.9799 8.30133 34.0312 9.59375 34.0312C10.6109 34.0312 11.47 33.3762 11.7935 32.4688H15.0625C15.399 32.4688 15.6973 32.2536 15.8037 31.9347L17.1882 27.7812H22.875C23.3064 27.7812 23.6562 27.4318 23.6562 27C23.6562 26.5682 23.3064 26.2188 22.875 26.2188H16.625C13.6095 26.2188 11.1562 23.7651 11.1562 20.75C11.1562 17.7349 13.6095 15.2812 16.625 15.2812C17.0564 15.2812 17.4062 14.9318 17.4062 14.5C17.4062 11.4849 19.8595 9.03125 22.875 9.03125C24.2197 9.03125 25.5129 9.52869 26.5165 10.432C26.774 10.6632 27.1528 10.6983 27.4496 10.5167C28.1957 10.0559 29.0457 9.8125 29.9062 9.8125C32.4911 9.8125 34.5938 11.9152 34.5938 14.5C34.5938 14.9318 34.9432 15.2812 35.375 15.2812C38.3901 15.2812 40.8438 17.7349 40.8438 20.75C40.8438 23.7651 38.3901 26.2188 35.375 26.2188H29.125C28.6932 26.2188 28.3438 26.5682 28.3438 27C28.3438 27.4318 28.6932 27.7812 29.125 27.7812H34.8122L36.1967 31.9347C36.3027 32.2536 36.601 32.4688 36.9375 32.4688H40.2065C40.53 33.3762 41.3891 34.0312 42.4062 34.0312C43.6987 34.0312 44.75 32.9799 44.75 31.6875C44.75 30.3951 43.6987 29.3438 42.4062 29.3438ZM9.59375 32.4688C9.16307 32.4688 8.8125 32.1186 8.8125 31.6875C8.8125 31.2564 9.16307 30.9062 9.59375 30.9062C10.0244 30.9062 10.375 31.2564 10.375 31.6875C10.375 32.1186 10.0244 32.4688 9.59375 32.4688ZM42.4062 32.4688C41.9752 32.4688 41.625 32.1186 41.625 31.6875C41.625 31.2564 41.9752 30.9062 42.4062 30.9062C42.8373 30.9062 43.1875 31.2564 43.1875 31.6875C43.1875 32.1186 42.8373 32.4688 42.4062 32.4688Z" fill="black"/>
<path d="M34.5938 37.1562H26.7812V35.5938C26.7812 35.1619 26.4314 34.8125 26 34.8125C25.5686 34.8125 25.2188 35.1619 25.2188 35.5938V37.1562H17.4062C16.1138 37.1562 15.0625 38.2076 15.0625 39.5V42.625C15.0625 43.7837 15.9095 44.742 17.0156 44.9293V45.75C17.0156 46.1818 17.3654 46.5312 17.7969 46.5312C18.2283 46.5312 18.5781 46.1818 18.5781 45.75V44.9688H33.4219V45.75C33.4219 46.1818 33.7713 46.5312 34.2031 46.5312C34.6349 46.5312 34.9844 46.1818 34.9844 45.75V44.9293C36.0905 44.742 36.9375 43.7837 36.9375 42.625V39.5C36.9375 38.2076 35.8862 37.1562 34.5938 37.1562ZM35.375 42.625C35.375 43.0561 35.0248 43.4062 34.5938 43.4062H17.4062C16.9756 43.4062 16.625 43.0561 16.625 42.625V39.5C16.625 39.0689 16.9756 38.7188 17.4062 38.7188H34.5938C35.0248 38.7188 35.375 39.0689 35.375 39.5V42.625Z" fill="black"/>
<path d="M33.0312 41.8438C33.4627 41.8438 33.8125 41.494 33.8125 41.0625C33.8125 40.631 33.4627 40.2812 33.0312 40.2812C32.5998 40.2812 32.25 40.631 32.25 41.0625C32.25 41.494 32.5998 41.8438 33.0312 41.8438Z" fill="black"/>
<path d="M29.9062 41.8438C30.3377 41.8438 30.6875 41.494 30.6875 41.0625C30.6875 40.631 30.3377 40.2812 29.9062 40.2812C29.4748 40.2812 29.125 40.631 29.125 41.0625C29.125 41.494 29.4748 41.8438 29.9062 41.8438Z" fill="black"/>
<path d="M22.0938 41.8438C22.5252 41.8438 22.875 41.494 22.875 41.0625C22.875 40.631 22.5252 40.2812 22.0938 40.2812C21.6623 40.2812 21.3125 40.631 21.3125 41.0625C21.3125 41.494 21.6623 41.8438 22.0938 41.8438Z" fill="black"/>
<path d="M18.9688 41.8438C19.4002 41.8438 19.75 41.494 19.75 41.0625C19.75 40.631 19.4002 40.2812 18.9688 40.2812C18.5373 40.2812 18.1875 40.631 18.1875 41.0625C18.1875 41.494 18.5373 41.8438 18.9688 41.8438Z" fill="black"/>
<path d="M23.514 33.1062C23.2087 33.4116 23.209 33.906 23.514 34.2111C23.8191 34.5162 24.3136 34.5164 24.6189 34.2111C25.3807 33.4494 26.6196 33.4496 27.381 34.2111C27.6861 34.5162 28.1806 34.5164 28.4859 34.2111C28.7912 33.9057 28.791 33.4113 28.4859 33.1062C27.1151 31.7354 24.8849 31.7354 23.514 33.1062Z" fill="black"/>
<path d="M21.5805 32.2762C21.8855 32.5813 22.38 32.5816 22.6853 32.2762C24.5131 30.4484 27.4867 30.4484 29.3144 32.2762C29.6195 32.5813 30.1139 32.5816 30.4193 32.2762C30.7246 31.9709 30.7244 31.4764 30.4193 31.1714C27.9825 28.7345 24.0173 28.7345 21.5805 31.1714C21.2751 31.4767 21.2754 31.9711 21.5805 32.2762Z" fill="black"/>
<path d="M26 27.7812C26.4315 27.7812 26.7812 27.4315 26.7812 27C26.7812 26.5685 26.4315 26.2188 26 26.2188C25.5685 26.2188 25.2188 26.5685 25.2188 27C25.2188 27.4315 25.5685 27.7812 26 27.7812Z" fill="black"/>
</svg>
